<?xml version="1.0" encoding="UTF-8"?>
<svg version="1.1" xmlns="http://www.w3.org/2000/svg" width="158" height="100">
<path d="M0 0 C0.495 0.99 0.495 0.99 1 2 C2.98 1.34 4.96 0.68 7 0 C7 0.99 7 1.98 7 3 C7.99 3 8.98 3 10 3 C10 3.99 10 4.98 10 6 C10.99 6.33 11.98 6.66 13 7 C13 8.32 13 9.64 13 11 C13.61875 11.226875 14.2375 11.45375 14.875 11.6875 C17 13 17 13 17.9375 15.4375 C19.28853992 18.69589041 20.9095065 19.45475325 24 21 C24.32871094 20.51789062 24.65742187 20.03578125 24.99609375 19.5390625 C28.4305523 14.97839938 31.25034635 12.86450911 36.94140625 11.93359375 C39 12 39 12 41.5625 13.875 C42.036875 14.57625 42.51125 15.2775 43 16 C43.33 15.67 43.66 15.34 44 15 C45.99958364 14.95919217 48.00045254 14.95745644 50 15 C50.33 14.01 50.66 13.02 51 12 C54.5625 10.8125 54.5625 10.8125 58 10 C58 11.98 58 13.96 58 16 C63.94 15.505 63.94 15.505 70 15 C70.99 18.3 71.98 21.6 73 25 C77.80739662 24.59284678 77.80739662 24.59284678 79.3125 22.375 C81.47332725 20.61432594 82.33821525 20.87021078 85.0625 21.125 C87.16015625 21.3828125 87.16015625 21.3828125 89 22 C91.31861878 25.47792817 91.24272927 26.90299252 91.1875 31 C91.17783203 32.5778125 91.17783203 32.5778125 91.16796875 34.1875 C91 37 91 37 90 40 C90.40716758 42.76475326 90.87662937 45.45474736 91.4375 48.1875 C91.58509766 48.93708984 91.73269531 49.68667969 91.88476562 50.45898438 C92.24972791 52.30734174 92.62397411 54.15386161 93 56 C91.58847656 56.56654297 91.58847656 56.56654297 90.1484375 57.14453125 C86.40659028 59.34971417 85.87098055 60.61410204 84.625 64.6875 C84.14933594 66.17830078 84.14933594 66.17830078 83.6640625 67.69921875 C83.33535156 68.83810547 83.33535156 68.83810547 83 70 C82.39671875 69.83242187 81.7934375 69.66484375 81.171875 69.4921875 C80.37265625 69.28851563 79.5734375 69.08484375 78.75 68.875 C77.96109375 68.66617188 77.1721875 68.45734375 76.359375 68.2421875 C73.54094055 67.952878 72.4293951 68.64475893 70 70 C69.01 70 68.02 70 67 70 C66.67 71.32 66.34 72.64 66 74 C65.3709375 74.04898438 64.741875 74.09796875 64.09375 74.1484375 C58.53086686 74.63435199 53.38006948 75.50553626 48 77 C48 79.64 48 82.28 48 85 C47.01 85 46.02 85 45 85 C45 85.66 45 86.32 45 87 C43.02 86.67 41.04 86.34 39 86 C39 86.99 39 87.98 39 89 C38.2575 88.979375 37.515 88.95875 36.75 88.9375 C34.29537721 88.99328688 32.33890739 89.3069904 30 90 C30 88.35 30 86.7 30 85 C28.989375 85.33 27.97875 85.66 26.9375 86 C23.20696882 87.05181305 19.88908615 87.37395059 16 87 C14.97803008 86.02246356 13.98020375 85.0194119 13 84 C10.35652845 83.12765439 7.72959883 82.58171778 5 82 C5.99 85.465 5.99 85.465 7 89 C5.02 88.505 5.02 88.505 3 88 C2.938125 86.7625 2.87625 85.525 2.8125 84.25 C2.39226463 80.99749339 2.11929197 80.1368349 -0.125 77.5625 C-2.99561627 75.78328754 -2.99561627 75.78328754 -6.625 75.5 C-10 75 -10 75 -11.5625 73.0625 C-12.036875 72.381875 -12.51125 71.70125 -13 71 C-16.54372942 69.35175376 -19.3529558 68.94173134 -23.1875 69.125 C-24.445625 69.08375 -25.70375 69.0425 -27 69 C-28 67.66666667 -29 66.33333333 -30 65 C-32.74961306 64.62530323 -35.20864117 64.81696008 -38 65 C-38.33 65.99 -38.66 66.98 -39 68 C-41.97 68 -44.94 68 -48 68 C-48.2475 66.576875 -48.495 65.15375 -48.75 63.6875 C-49.55868193 60.11924351 -49.55868193 60.11924351 -51.5625 57.125 C-55.26738222 55.41505436 -59.09665074 54.17600907 -63 53 C-62.67 52.01 -62.34 51.02 -62 50 C-56.23918159 48.7017874 -50.91260345 47.74293028 -45 48 C-45 46.35 -45 44.7 -45 43 C-47.85078091 42.23283149 -47.85078091 42.23283149 -51 42 C-52.77190909 43.35444301 -52.77190909 43.35444301 -54 45 C-54.66 45 -55.32 45 -56 45 C-55.67 43.35 -55.34 41.7 -55 40 C-56.32 39.67 -57.64 39.34 -59 39 C-59 38.34 -59 37.68 -59 37 C-58.01 37 -57.02 37 -56 37 C-56 36.34 -56 35.68 -56 35 C-58.97 35 -61.94 35 -65 35 C-65.1080023 32.89695523 -65.18558987 30.79233091 -65.25 28.6875 C-65.31960937 26.92986328 -65.31960937 26.92986328 -65.390625 25.13671875 C-65 22 -65 22 -63.12109375 20.171875 C-62.42113281 19.78515625 -61.72117188 19.3984375 -61 19 C-60.278125 18.525625 -59.55625 18.05125 -58.8125 17.5625 C-56.37504485 16.20835825 -53.94235804 14.91118475 -51.4375 13.6875 C-50.69371094 13.32011719 -49.94992188 12.95273438 -49.18359375 12.57421875 C-47 12 -47 12 -44.72265625 12.89453125 C-44.15417969 13.25933594 -43.58570312 13.62414063 -43 14 C-42.34 13.34 -41.68 12.68 -41 12 C-37.375 11.875 -37.375 11.875 -34 12 C-33.67 11.01 -33.34 10.02 -33 9 C-32.01 9 -31.02 9 -30 9 C-30 10.32 -30 11.64 -30 13 C-28.68 13 -27.36 13 -26 13 C-26 12.01 -26 11.02 -26 10 C-22.7 10.33 -19.4 10.66 -16 11 C-14.95550089 7.86650268 -15.06576355 7.01031744 -16 4 C-10.47659574 1.86595745 -10.47659574 1.86595745 -8 2.5625 C-4.79334817 3.26395509 -2.74489202 1.55959774 0 0 Z M-52 32 C-52.33 33.65 -52.66 35.3 -53 37 C-50.36 37 -47.72 37 -45 37 C-45 36.67 -45 36.34 -45 36 C-47.31 36 -49.62 36 -52 36 C-51.34 34.68 -50.68 33.36 -50 32 C-50.66 32 -51.32 32 -52 32 Z " fill="#CDCDCD" transform="translate(65,0)"/>
<path d="M0 0 C0.66 0.33 1.32 0.66 2 1 C1.01 1.33 0.02 1.66 -1 2 C-1 4.64 -1 7.28 -1 10 C-1.99 10 -2.98 10 -4 10 C-4 10.66 -4 11.32 -4 12 C-5.98 11.67 -7.96 11.34 -10 11 C-10 11.99 -10 12.98 -10 14 C-11.11375 13.9690625 -11.11375 13.9690625 -12.25 13.9375 C-14.70462279 13.99328688 -16.66109261 14.3069904 -19 15 C-19 13.35 -19 11.7 -19 10 C-20.5159375 10.495 -20.5159375 10.495 -22.0625 11 C-25.79303118 12.05181305 -29.11091385 12.37395059 -33 12 C-34.02196992 11.02246356 -35.01979625 10.0194119 -36 9 C-38.64347155 8.12765439 -41.27040117 7.58171778 -44 7 C-43.34 9.31 -42.68 11.62 -42 14 C-43.32 13.67 -44.64 13.34 -46 13 C-46.33 10.03 -46.66 7.06 -47 4 C-46.34 4 -45.68 4 -45 4 C-45 4.66 -45 5.32 -45 6 C-43.4221875 5.9071875 -43.4221875 5.9071875 -41.8125 5.8125 C-37.57874417 6.0207175 -35.01257835 6.98742165 -32 10 C-28.3968164 9.77679394 -24.81514487 9.41309161 -21.22265625 9.05859375 C-19.62744141 9.02958984 -19.62744141 9.02958984 -18 9 C-16 11 -16 11 -16 12 C-13.525 12.495 -13.525 12.495 -11 13 C-11 12.01 -11 11.02 -11 10 C-9.02 10.33 -7.04 10.66 -5 11 C-5 10.34 -5 9.68 -5 9 C-4.34 8.67 -3.68 8.34 -3 8 C-2.835 6.845 -2.67 5.69 -2.5 4.5 C-2.335 3.345 -2.17 2.19 -2 1 C-1.34 0.67 -0.68 0.34 0 0 Z " fill="#EEEEEE" transform="translate(114,75)"/>
<path d="M0 0 C0.66 0.66 1.32 1.32 2 2 C1.67 2.66 1.34 3.32 1 4 C2.32 3.34 3.64 2.68 5 2 C5.33 3.32 5.66 4.64 6 6 C6.66 6 7.32 6 8 6 C8 6.66 8 7.32 8 8 C2.06 8.495 2.06 8.495 -4 9 C-3.67 9.66 -3.34 10.32 -3 11 C-2.38125 10.79375 -1.7625 10.5875 -1.125 10.375 C-0.073125 10.189375 -0.073125 10.189375 1 10 C1.66 10.66 2.32 11.32 3 12 C2.2575 12.12375 1.515 12.2475 0.75 12.375 C-1.80141485 12.95486701 -3.7267573 13.73708739 -6 15 C-5.67 13.35 -5.34 11.7 -5 10 C-6.32 9.67 -7.64 9.34 -9 9 C-9 8.34 -9 7.68 -9 7 C-8.01 7 -7.02 7 -6 7 C-6 6.34 -6 5.68 -6 5 C-8.97 4.505 -8.97 4.505 -12 4 C-12 3.67 -12 3.34 -12 3 C-11.38511719 2.86722656 -10.77023438 2.73445313 -10.13671875 2.59765625 C-9.32847656 2.42105469 -8.52023438 2.24445312 -7.6875 2.0625 C-6.88699219 1.88847656 -6.08648437 1.71445312 -5.26171875 1.53515625 C-2.854599 1.00113841 -2.854599 1.00113841 0 0 Z M-2 2 C-2.33 3.65 -2.66 5.3 -3 7 C-0.36 7 2.28 7 5 7 C5 6.67 5 6.34 5 6 C2.69 6 0.38 6 -2 6 C-1.34 4.68 -0.68 3.36 0 2 C-0.66 2 -1.32 2 -2 2 Z " fill="#EEEEEE" transform="translate(15,30)"/>
<path d="M0 0 C2.40928735 0.96371494 3.76007009 1.65210163 5.25 3.8125 C6.11081611 6.32321365 6.14647297 8.36348649 6 11 C8.97065509 10.65772428 8.97065509 10.65772428 12 10 C12.33 9.34 12.66 8.68 13 8 C16.5 7.5 16.5 7.5 20 7 C20.33 6.34 20.66 5.68 21 5 C21.99 5.33 22.98 5.66 24 6 C24.28101562 6.65742187 24.56203125 7.31484375 24.8515625 7.9921875 C25.84464412 10.25907314 25.84464412 10.25907314 28.4609375 10.7578125 C29.90339844 10.93957031 29.90339844 10.93957031 31.375 11.125 C35.01103154 11.60523058 37.80317777 12.16675123 41 14 C40.67 14.66 40.34 15.32 40 16 C39.01 15.505 38.02 15.01 37 14.5 C34.06958964 13.20752226 31.93927192 12.87941217 28.75 13.0625 C26.89375 13.0315625 26.89375 13.0315625 25 13 C23.5 11 23.5 11 22 9 C19.25038694 8.62530323 16.79135883 8.81696008 14 9 C13.67 9.99 13.34 10.98 13 12 C10.03 12 7.06 12 4 12 C3.54427083 9.75390625 3.08854167 7.5078125 2.6328125 5.26171875 C2.05521001 2.74698882 2.05521001 2.74698882 0 0 Z " fill="#EDEDED" transform="translate(13,56)"/>
<path d="M0 0 C2.8822106 2.8822106 2.9689061 6.24869013 3.625 10.125 C3.7590625 10.87910156 3.893125 11.63320313 4.03125 12.41015625 C4.36123229 14.27219918 4.68154073 16.13595175 5 18 C4.05898437 18.37769531 3.11796875 18.75539063 2.1484375 19.14453125 C-1.59340972 21.34971417 -2.12901945 22.61410204 -3.375 26.6875 C-3.69210938 27.68136719 -4.00921875 28.67523438 -4.3359375 29.69921875 C-4.55507812 30.45847656 -4.77421875 31.21773437 -5 32 C-5.60328125 31.83242187 -6.2065625 31.66484375 -6.828125 31.4921875 C-7.62734375 31.28851563 -8.4265625 31.08484375 -9.25 30.875 C-10.43335938 30.56175781 -10.43335938 30.56175781 -11.640625 30.2421875 C-14.4536724 29.95343098 -15.549384 30.71393292 -18 32 C-18.99 31.67 -19.98 31.34 -21 31 C-20.360625 30.71125 -19.72125 30.4225 -19.0625 30.125 C-16.84793921 29.17176549 -16.84793921 29.17176549 -16 27 C-15.278125 27.144375 -14.55625 27.28875 -13.8125 27.4375 C-12.884375 27.623125 -11.95625 27.80875 -11 28 C-10.11699219 28.17660156 -9.23398438 28.35320312 -8.32421875 28.53515625 C-7.55722656 28.68855469 -6.79023438 28.84195313 -6 29 C-5.76925781 28.30132812 -5.53851563 27.60265625 -5.30078125 26.8828125 C-4.81158203 25.51769531 -4.81158203 25.51769531 -4.3125 24.125 C-3.99925781 23.22007813 -3.68601563 22.31515625 -3.36328125 21.3828125 C-1.66303207 18.41103027 -0.22446551 17.93044278 3 17 C2.7834375 16.02417969 2.566875 15.04835938 2.34375 14.04296875 C2.0653125 12.77066406 1.786875 11.49835937 1.5 10.1875 C1.2215625 8.92292969 0.943125 7.65835938 0.65625 6.35546875 C0 3 0 3 0 0 Z " fill="#EFEFEF" transform="translate(153,38)"/>
<path d="M0 0 C1.31602523 0.61754259 2.62773556 1.24428742 3.9375 1.875 C4.66839844 2.22304687 5.39929688 2.57109375 6.15234375 2.9296875 C8 4 8 4 9 6 C8.67 6.66 8.34 7.32 8 8 C5.36 7.67 2.72 7.34 0 7 C0 4.69 0 2.38 0 0 Z " fill="#E3E3E3" transform="translate(64,92)"/>
<path d="M0 0 C-2.58155132 2.27176516 -4.2106488 3.05084626 -7.625 3.875 C-11.18841643 4.63768188 -11.18841643 4.63768188 -12.4375 7.625 C-12.7159375 8.800625 -12.7159375 8.800625 -13 10 C-14.98 10 -16.96 10 -19 10 C-19.33 8.68 -19.66 7.36 -20 6 C-17.525 6.99 -17.525 6.99 -15 8 C-14.63648437 7.51789062 -14.27296875 7.03578125 -13.8984375 6.5390625 C-10.06796526 1.72641789 -6.55565287 -2.18521762 0 0 Z " fill="#F0F0F0" transform="translate(104,13)"/>
<path d="M0 0 C0.66 0.33 1.32 0.66 2 1 C1.67 1.99 1.34 2.98 1 4 C1.33 4.825 1.66 5.65 2 6.5 C3 9 3 9 2 12 C0 9 0 9 -0.875 6.875 C-1.84957521 4.79923543 -1.84957521 4.79923543 -4.125 4.25 C-4.74375 4.1675 -5.3625 4.085 -6 4 C-6.33 5.32 -6.66 6.64 -7 8 C-7.33 7.34 -7.66 6.68 -8 6 C-7.67 5.01 -7.34 4.02 -7 3 C-5.02 3 -3.04 3 -1 3 C-0.67 2.01 -0.34 1.02 0 0 Z " fill="#EEEEEE" transform="translate(116,12)"/>
</svg>
