<?xml version="1.0" encoding="UTF-8"?>
<svg version="1.1" xmlns="http://www.w3.org/2000/svg" width="45" height="94">
<path d="M0 0 C1.86328125 1.41796875 1.86328125 1.41796875 2.5078125 3.9921875 C2.56324219 5.01957031 2.61867187 6.04695312 2.67578125 7.10546875 C2.73636719 8.18441406 2.79695313 9.26335938 2.859375 10.375 C2.86328125 13.41796875 2.86328125 13.41796875 2.23828125 17.29296875 C1.54884661 20.44284866 1.54884661 20.44284866 3.2890625 22.9609375 C5.40787528 27.61391345 5.50208579 31.79703152 5.67578125 36.85546875 C5.7521582 38.22928711 5.7521582 38.22928711 5.83007812 39.63085938 C6.11320906 46.31562873 5.78109944 51.72081246 1.77734375 57.3515625 C-0.55478211 61.08772332 -0.72978285 64.20504985 -0.76171875 68.48046875 C-0.96157684 79.24282684 -0.96157684 79.24282684 -5.13671875 83.41796875 C-5.93927442 85.43486257 -6.59318364 87.47692247 -7.2578125 89.54296875 C-8.13671875 91.41796875 -8.13671875 91.41796875 -11.13671875 93.41796875 C-12.45671875 92.75796875 -13.77671875 92.09796875 -15.13671875 91.41796875 C-15.13671875 90.75796875 -15.13671875 90.09796875 -15.13671875 89.41796875 C-18.43671875 87.76796875 -21.73671875 86.11796875 -25.13671875 84.41796875 C-25.13671875 83.75796875 -25.13671875 83.09796875 -25.13671875 82.41796875 C-26.12671875 82.41796875 -27.11671875 82.41796875 -28.13671875 82.41796875 C-28.26171875 80.04296875 -28.26171875 80.04296875 -28.13671875 77.41796875 C-27.14671875 76.42796875 -27.14671875 76.42796875 -26.13671875 75.41796875 C-26.79671875 75.08796875 -27.45671875 74.75796875 -28.13671875 74.41796875 C-28.13671875 73.75796875 -28.13671875 73.09796875 -28.13671875 72.41796875 C-29.78671875 72.41796875 -31.43671875 72.41796875 -33.13671875 72.41796875 C-33.13671875 71.75796875 -33.13671875 71.09796875 -33.13671875 70.41796875 C-32.47671875 70.41796875 -31.81671875 70.41796875 -31.13671875 70.41796875 C-31.13671875 69.42796875 -31.13671875 68.43796875 -31.13671875 67.41796875 C-30.14671875 67.41796875 -29.15671875 67.41796875 -28.13671875 67.41796875 C-28.13671875 66.09796875 -28.13671875 64.77796875 -28.13671875 63.41796875 C-30.44671875 63.41796875 -32.75671875 63.41796875 -35.13671875 63.41796875 C-35.46671875 61.76796875 -35.79671875 60.11796875 -36.13671875 58.41796875 C-35.14671875 58.41796875 -34.15671875 58.41796875 -33.13671875 58.41796875 C-33.13671875 57.42796875 -33.13671875 56.43796875 -33.13671875 55.41796875 C-32.14671875 54.92296875 -32.14671875 54.92296875 -31.13671875 54.41796875 C-31.13671875 53.75796875 -31.13671875 53.09796875 -31.13671875 52.41796875 C-32.31234375 52.13953125 -32.31234375 52.13953125 -33.51171875 51.85546875 C-36.13671875 50.41796875 -36.13671875 50.41796875 -37.44921875 46.79296875 C-37.67609375 45.67921875 -37.90296875 44.56546875 -38.13671875 43.41796875 C-37.14671875 42.75796875 -36.15671875 42.09796875 -35.13671875 41.41796875 C-35.63171875 40.98484375 -36.12671875 40.55171875 -36.63671875 40.10546875 C-38.13671875 38.41796875 -38.13671875 38.41796875 -38.13671875 35.41796875 C-36.81671875 34.75796875 -35.49671875 34.09796875 -34.13671875 33.41796875 C-34.13671875 32.09796875 -34.13671875 30.77796875 -34.13671875 29.41796875 C-33.14671875 28.75796875 -32.15671875 28.09796875 -31.13671875 27.41796875 C-29.94439262 25.3679292 -29.94439262 25.3679292 -29.13671875 23.41796875 C-28.47671875 23.74796875 -27.81671875 24.07796875 -27.13671875 24.41796875 C-27.13671875 23.75796875 -27.13671875 23.09796875 -27.13671875 22.41796875 C-26.5334375 22.2478125 -25.93015625 22.07765625 -25.30859375 21.90234375 C-20.15752255 20.40899676 -20.15752255 20.40899676 -15.94921875 17.23046875 C-14.13671875 15.41796875 -14.13671875 15.41796875 -11.07421875 15.04296875 C-8.13671875 15.41796875 -8.13671875 15.41796875 -5.13671875 17.41796875 C-5.22050781 16.82628906 -5.30429687 16.23460938 -5.390625 15.625 C-5.95060339 11.27985125 -6.27237283 7.7082175 -5.13671875 3.41796875 C-5.13671875 2.42796875 -5.13671875 1.43796875 -5.13671875 0.41796875 C-2.13671875 -0.58203125 -2.13671875 -0.58203125 0 0 Z " fill="#D0D0D0" transform="translate(39.13671875,0.58203125)"/>
<path d="M0 0 C3.5219721 -0.08004482 6.61981469 -0.04005702 10 1 C10.33 2.98 10.66 4.96 11 7 C11.99 7 12.98 7 14 7 C14.33 6.01 14.66 5.02 15 4 C15.66 4.66 16.32 5.32 17 6 C15.68 6.99 14.36 7.98 13 9 C11.68 8.34 10.36 7.68 9 7 C9 6.34 9 5.68 9 5 C4.545 3.02 4.545 3.02 0 1 C0 0.67 0 0.34 0 0 Z " fill="#EBEBEB" transform="translate(15,85)"/>
<path d="M0 0 C0.6875 1.8125 0.6875 1.8125 1 4 C-0.3125 5.5 -0.3125 5.5 -2 7 C-3.17574711 9.09989652 -3.17574711 9.09989652 -4 11 C-4.08798298 7.83261279 -4.13288112 4.98668658 -3 2 C-2.01 1.34 -1.02 0.68 0 0 Z " fill="#EFEFEF" transform="translate(36,77)"/>
</svg>
