<?xml version="1.0" encoding="UTF-8"?>
<svg xmlns="http://www.w3.org/2000/svg" width="76" height="60" viewBox="0 0 76 60" fill="none">
  <path d="M72.7585 30.5504L74.6988 30.3461C74.8009 27.1294 74.8519 24.6786 74.903 23.0447C72.7075 22.5852 71.0736 22.6873 69.9503 23.351C68.8781 23.5553 68.4696 24.1169 68.6228 25.087L68.3164 29.427C69.2865 30.5503 70.7672 30.9078 72.7585 30.5504Z" fill="white"></path>
  <path d="M67.1423 53.6286C66.7338 52.7095 65.6616 51.9947 63.9767 51.433C62.2917 50.8714 61.2195 50.1055 60.7599 49.0843C59.5856 48.9311 58.3602 48.1142 57.1858 46.6846C55.8072 45.1017 54.786 44.0805 54.0202 43.7742C53.5096 43.3657 52.2331 42.702 50.0886 41.7829C48.5058 41.0681 47.3825 40.149 46.8209 39.0257C46.4634 38.3109 45.7486 38.0045 44.6764 38.0045C43.451 38.0556 42.6851 37.9024 42.3787 37.596C41.3525 36.1089 40.2266 34.693 39.0088 33.3582C37.7908 32.0525 36.2069 31.1449 34.4646 30.7541C33.2902 30.7031 32.4222 29.9883 31.7074 28.5076C31.2965 27.2515 30.7665 26.0376 30.1246 24.8824L28.1843 20.5424C25.5293 20.5424 24.0486 20.4913 23.6912 20.4913C22.2047 20.3766 20.7681 19.9036 19.5043 19.1127C19.0489 17.6782 18.7074 16.21 18.4832 14.7217C18.2572 13.2626 17.8454 11.8383 17.2577 10.4838C16.1014 10.4943 14.9494 10.3395 13.8368 10.0242C13.3084 9.86423 12.8251 9.58211 12.4259 9.2007C12.0268 8.81928 11.723 8.34932 11.5391 7.82874C9.64996 7.47132 6.89278 6.80751 3.16548 5.99057C1.63371 5.3268 0.969949 5.68426 1.22524 7.06285C1.21945 8.2854 1.06515 9.5027 0.765712 10.688C0.663595 12.1177 1.22524 13.0367 2.3996 13.3941C2.75701 13.8536 3.16548 14.8748 3.67607 16.4576C3.9347 17.6297 4.53951 18.697 5.41207 19.5212C5.92266 20.236 6.22902 20.6955 6.28008 20.7977C6.46815 20.9754 6.69622 21.1053 6.94504 21.1764C7.19387 21.2475 7.45613 21.2577 7.70972 21.2061C11.2328 21.6146 12.9688 22.6868 12.9688 24.3718C12.7135 25.4951 13.2751 26.2099 14.5516 26.5673L20.8829 29.4266C21.0699 30.6787 21.1892 31.94 21.2403 33.205C21.2675 34.4545 21.387 35.7004 21.5978 36.9323C22.6189 37.9024 24.9676 39.1278 28.6439 40.5575C29.9834 41.4948 31.4013 42.3147 32.8818 43.0083C34.0051 42.9062 34.8731 42.8041 35.4347 42.8041C36.2811 42.6797 37.1453 42.7855 37.9366 43.1104C37.8345 44.2848 38.4472 45.1528 39.7747 45.8676C40.8899 46.4019 41.965 47.0162 42.9914 47.7057C43.8084 48.2163 45.0338 48.9822 46.6166 50.0034C50.9566 50.4119 53.4585 50.7182 54.0712 50.8714C54.5308 52.5563 54.6329 55.1603 54.4797 58.7345C58.4623 58.4792 61.679 58.326 64.0788 58.326H67.1934C67.4452 56.7688 67.4279 55.1799 67.1423 53.6286Z" fill="white"></path>
  <path d="M50.9552 10.1262C50.9264 10.5342 50.9264 10.9436 50.9552 11.3516V17.2234C51.3637 17.5297 51.9764 18.0914 52.7423 18.8062C53.3912 19.2752 54.1957 19.4764 54.9889 19.3679C56.6228 19.5721 57.5929 19.3679 57.9503 18.8573C57.8609 16.3753 57.3606 13.9252 56.4696 11.6069C55.5505 10.9431 54.8868 10.4836 54.4273 10.1773C53.6817 9.76181 52.8096 9.63458 51.9764 9.81982C51.4148 9.66664 51.1084 9.76881 50.9552 10.1262Z" fill="white"></path>
  <path d="M40.4915 8.08428V1.39551C39.575 1.49561 38.6794 1.73674 37.8365 2.11035C36.974 2.51581 36.0323 2.7251 35.0793 2.72309C34.9928 3.53797 34.7684 4.33219 34.4155 5.07179C34.0783 5.8238 33.9717 6.65891 34.1092 7.47153C33.956 7.93106 34.2113 8.13532 34.7219 8.13532C35.5899 8.08426 35.9983 8.08428 36.0494 8.08428H40.4915Z" fill="white"></path>
  <path d="M48.4062 50.5146C48.6105 51.0763 48.8658 51.9443 49.1721 53.1186C49.4237 53.969 49.8595 54.7535 50.4486 55.4163C50.4997 55.4674 51.2655 55.9269 52.7463 56.897C53.6653 57.5097 54.0227 57.2034 53.8185 56.0801L53.8696 51.1273C52.6441 50.9231 50.8571 50.7189 48.4062 50.5146Z" fill="white"></path>
  <path d="M67.1423 53.6286C67.4279 55.1799 67.4452 56.7688 67.1934 58.326H64.0788C61.679 58.326 58.4623 58.4792 54.4797 58.7345C54.6329 55.1603 54.5308 52.5563 54.0712 50.8714C53.4585 50.7182 50.9566 50.4119 46.6166 50.0034C45.0338 48.9822 43.8084 48.2163 42.9914 47.7057C41.965 47.0162 40.8899 46.4019 39.7747 45.8676C38.4472 45.1528 37.8345 44.2848 37.9366 43.1104C37.1453 42.7855 36.2811 42.6797 35.4347 42.8041C34.8731 42.8041 34.0051 42.9062 32.8818 43.0083C31.4013 42.3147 29.9834 41.4948 28.6439 40.5575C24.9676 39.1278 22.6189 37.9024 21.5978 36.9323C21.387 35.7004 21.2675 34.4545 21.2403 33.205C21.1892 31.94 21.0699 30.6787 20.8829 29.4266L14.5516 26.5673C13.2751 26.2099 12.7135 25.4951 12.9688 24.3718C12.9688 22.6868 11.2328 21.6146 7.70972 21.2061C7.45613 21.2577 7.19387 21.2475 6.94504 21.1764C6.69622 21.1053 6.46815 20.9754 6.28008 20.7977C6.22902 20.6955 5.92266 20.236 5.41207 19.5212C4.53951 18.697 3.9347 17.6297 3.67607 16.4576C3.16548 14.8748 2.75701 13.8536 2.3996 13.3941C1.22524 13.0367 0.663595 12.1177 0.765712 10.688C1.06515 9.5027 1.21945 8.2854 1.22524 7.06285C0.969949 5.68426 1.63371 5.3268 3.16548 5.99057C6.89278 6.80751 9.64996 7.47132 11.5391 7.82874C11.723 8.34932 12.0268 8.81928 12.4259 9.2007C12.8251 9.58211 13.3084 9.86423 13.8368 10.0242C14.9494 10.3395 16.1014 10.4943 17.2577 10.4838C17.8453 11.8383 18.2572 13.2626 18.4832 14.7217C18.7074 16.21 19.0489 17.6782 19.5043 19.1127C20.7681 19.9036 22.2047 20.3766 23.6912 20.4913C24.0486 20.4913 25.5293 20.5424 28.1843 20.5424L30.1246 24.8824C30.7665 26.0376 31.2965 27.2515 31.7074 28.5076C32.4222 29.9883 33.2902 30.7031 34.4646 30.7541C36.2069 31.1449 37.7908 32.0525 39.0088 33.3582C40.2266 34.693 41.3525 36.1089 42.3787 37.596C42.6851 37.9024 43.451 38.0556 44.6764 38.0045C45.7486 38.0045 46.4634 38.3109 46.8209 39.0257C47.3825 40.149 48.5058 41.0681 50.0886 41.7829C52.2331 42.702 53.5096 43.3657 54.0202 43.7742C54.7861 44.0805 55.8072 45.1017 57.1858 46.6846C58.3602 48.1142 59.5856 48.9311 60.7599 49.0843C61.2195 50.1055 62.3428 50.8714 63.9767 51.433C65.6105 51.9947 66.7338 52.7095 67.1423 53.6286" stroke="#494E77" stroke-linecap="round" stroke-linejoin="round"></path>
  <path d="M50.9552 10.1262C51.1084 9.76881 51.4148 9.66664 51.9764 9.81982C52.8096 9.63458 53.6817 9.76181 54.4273 10.1773C54.8868 10.4836 55.5505 10.9431 56.4696 11.6069C57.3606 13.9252 57.8609 16.3753 57.9503 18.8573C57.5929 19.3679 56.6228 19.5721 54.9889 19.3679C54.1957 19.4764 53.3912 19.2752 52.7423 18.8062C51.9764 18.0914 51.3637 17.5297 50.9552 17.2234V11.3516C50.9264 10.9436 50.9264 10.5342 50.9552 10.1262Z" stroke="#494E77" stroke-linecap="round" stroke-linejoin="round"></path>
  <path d="M40.4915 8.08428H36.0494C35.9983 8.08428 35.5899 8.08426 34.7219 8.13532C34.2113 8.13532 33.956 7.93106 34.1092 7.47153C33.9717 6.65891 34.0783 5.8238 34.4155 5.07179C34.7684 4.33219 34.9928 3.53797 35.0793 2.72309C36.0323 2.7251 36.974 2.51581 37.8365 2.11035C38.6794 1.73674 39.575 1.49561 40.4915 1.39551V8.08428" stroke="#494E77" stroke-linecap="round" stroke-linejoin="round"></path>
  <path d="M48.4062 50.5146C50.8571 50.7189 52.6441 50.9231 53.8696 51.1273L53.8185 56.0801C54.0227 57.2034 53.6653 57.5097 52.7463 56.897C51.2655 55.9269 50.4997 55.4674 50.4486 55.4163C49.8595 54.7535 49.4237 53.969 49.1721 53.1186C48.8658 51.9443 48.6105 51.0763 48.4062 50.5146Z" stroke="#494E77" stroke-linecap="round" stroke-linejoin="round"></path>
  <path d="M72.7585 30.5504C70.7672 30.9078 69.2865 30.5503 68.3164 29.427L68.6228 25.087C68.4696 24.1169 68.8781 23.5553 69.9503 23.351C71.0736 22.6873 72.7075 22.5852 74.903 23.0447C74.8519 24.6786 74.8009 27.1294 74.6988 30.3461L72.7585 30.5504" stroke="#494E77" stroke-linecap="round" stroke-linejoin="round"></path>
  <circle cx="51.5" cy="52.5" r="4.5" fill="#EC7857"></circle>
</svg>
