<?xml version="1.0" encoding="UTF-8"?>
<svg xmlns="http://www.w3.org/2000/svg" width="167" height="95" viewBox="0 0 167 95" fill="none">
  <path d="M39.8899 13.2973L41.7831 13.4551L40.5999 14.7172L40.521 16.1371V16.216L40.0477 16.6893L39.7322 18.3458L39.2589 18.9769L38.7067 21.4222L38.1545 26.944L38.8644 28.5217L37.5234 30.2571L43.1241 28.7583L44.7807 30.0205L47.936 29.3894L50.0658 29.5472L52.8267 27.7329L56.0609 24.0254L59.7684 21.7378L61.3461 21.4222L62.8448 19.7657L63.0815 19.2924L62.766 18.2669L63.4759 18.4247L63.5548 20.6334L64.5803 22.921L65.3691 22.8421L68.6033 20.0812L66.079 17.2415L63.3181 15.506L60.715 14.7961L59.6895 14.875L55.5087 12.5873L53.9311 12.824L52.9845 12.3507L50.8546 11.9563L48.0937 12.2718L42.3353 10.4575L40.2055 11.0097L39.8899 13.2973Z" fill="white"></path>
  <path d="M41.7838 13.4554L39.8906 13.2976L40.2061 11.01L37.5241 10.6945L34.8421 8.80127L33.4222 9.51121L30.7402 9.19568L27.0327 10.2212L24.0352 12.5876L24.2718 14.1653L25.6917 16.5318L26.4016 19.2138L28.3737 21.8169L28.1371 25.6822L33.1067 27.4176L33.2645 27.4965L33.58 27.812L34.8421 28.7586L35.3154 29.4686L35.7887 30.1785L36.4198 31.0463L37.5241 30.2574L38.8651 28.522L38.1552 26.9443L38.7074 21.4225L39.2596 18.9772L39.7329 18.3461L40.0484 16.6896L40.5217 16.1374L40.6006 14.7175L41.7838 13.4554Z" fill="white"></path>
  <path d="M25.6917 16.532L24.2719 14.1655L24.0352 12.5879L20.5644 14.9544L19.3811 16.6898L17.409 17.4786L16.2258 18.1886L12.1239 17.1631L11.0195 17.242V18.7408L9.7574 22.1327V28.6011L6.83874 31.1254L5.73438 31.5198L7.94309 34.9906L9.36299 35.9373L10.0729 35.3851L10.7829 35.9373L11.8872 36.2528L13.3071 37.6726H14.4115L14.8848 38.5404L16.068 38.8559L18.9867 40.5124H20.801L21.6687 41.2224L25.7706 41.1435L27.3483 44.141L30.8191 46.8231L35.0788 44.6144L36.8931 42.0901L34.29 39.4081V38.8559L35.3155 37.6726L35.3943 33.8863L36.4987 32.703L36.4198 31.0465L35.7888 30.1788L35.4732 29.7055L35.1577 29.2322L34.8422 28.8378L33.8167 27.9701L33.2645 27.4968L33.1067 27.4179L28.1371 25.6825L28.3738 21.8172L26.4017 19.2141L25.6917 16.532Z" fill="white"></path>
  <path d="M5.25968 31.7563L3.60313 31.6774L1.31553 34.1228L1.07888 34.5961L1 35.2272L1.86771 37.1992L1.39441 40.6701L3.36649 43.2732L6.36404 45.7975L6.5218 46.823L8.80941 49.8205V51.477L11.0181 53.7646L11.097 57.1566L10.3871 60.3908L12.1225 64.4927L15.9877 67.4903L16.2244 68.1213L17.4865 69.1468L17.8021 71.2766L18.8275 72.4599L22.6139 73.0121L26.2425 74.2742L28.0568 76.0096L30.5022 74.0375L30.3444 71.9866L31.4488 70.8033L31.7643 70.4089L30.1078 69.9356L31.1333 67.8847L30.0289 67.3325L29.319 65.4393L30.1078 62.284L32.8687 60.0753L31.9221 58.4187L32.1587 57.3932L29.6345 54.5535L28.2935 51.6348V51.2404L28.1357 50.2149L29.8711 47.8484L30.8177 46.823L27.3469 44.1409L25.7692 41.1434L21.6673 41.2222L20.7996 40.5123H18.9853L16.0666 38.8558L14.8834 38.5402L14.4101 37.6725H13.3057L11.8858 36.2526L10.7815 35.9371L10.0715 35.3849L9.36158 35.9371L7.94169 34.9905L5.73297 31.5197L5.25968 31.7563Z" fill="white"></path>
  <path d="M28.2945 51.2402V51.6347L29.6355 54.5533L32.1597 57.3931L31.9231 58.4186L32.8697 60.0751L30.1088 62.2838L29.32 65.4392L30.0299 67.3324L31.1343 67.8846L30.1088 69.9355L31.7653 70.4088L31.4498 70.8032L30.3454 71.9864L30.5032 74.0374L35.5517 72.933L37.7604 69.2255L39.1014 68.3578L41.2313 71.1187L41.5468 71.4343L42.4934 72.6964L42.9667 73.0908L44.1499 74.0374L43.9922 75.1417L46.9108 77.5082L49.0407 77.035L52.3538 75.0629L53.6948 73.3274L56.8501 71.1187L56.6923 67.8846L57.3234 64.7292L58.901 61.2584L60.952 59.4441L61.9775 59.0497L63.7918 60.2329L64.4228 61.7317L65.3694 60.3118L61.7408 54.8689L59.4532 57.0776L57.7967 56.9198L55.4302 55.5788L53.8525 50.5303L52.5904 49.5048L50.0662 50.2148L48.5674 49.7415L45.9642 49.8204L43.0456 50.4514L42.6512 47.7694L41.389 46.034L38.6281 43.1153L36.8927 42.0898L35.0784 44.6141L30.8187 46.8228L29.8721 47.8483L28.1367 50.2148L28.2945 51.2402Z" fill="white"></path>
  <path d="M30.4251 74.5897L28.0586 76.0096L30.1095 78.6127L31.5294 79.4016L34.7636 80.0326L36.1046 81.6892L36.6568 82.0047L38.7867 82.2413L39.9699 83.3457L42.1786 83.4246L47.306 85.2389L49.4359 86.8166L50.5402 86.6588L52.5912 87.2899L54.0899 86.7377L54.6421 86.6588L57.7186 88.8675L61.5049 88.3153L63.5559 89.1831L65.0547 88.4731L67.1845 88.2365L68.4466 87.1321L71.1286 87.3687L71.8386 86.501L71.7597 85.3967L71.0498 83.5035L70.8131 82.8724L70.892 80.6637L69.3143 76.4829L69.9454 71.5922L68.5255 69.9356L67.9733 66.1493L63.7925 65.6759L63.477 65.2027L64.4236 63.3095V61.7318L63.7925 60.233L61.9782 59.0498L60.9528 59.4442L58.9018 61.2585L57.3241 64.7294L56.6931 67.8847L56.8508 71.1189L53.6955 73.3276L52.3545 75.063L49.0414 77.0351L46.9116 77.5084L43.9929 75.1419L44.1507 74.0376L42.9675 73.0909L43.2041 73.3276L42.7308 72.8543L42.4153 72.6965L41.942 72.0655L41.232 71.1189L39.1022 68.358L37.7612 69.2257V70.33L37.0512 71.7499L35.5525 73.2487L30.4251 74.5897Z" fill="white"></path>
  <path d="M70.5752 23.3156L68.6031 20.0025V20.0814L65.3689 22.8423L64.5801 22.9212L63.5546 20.6336L63.4757 18.4249L62.7658 18.2671L63.0813 19.2926L62.8447 19.7659L61.3459 21.4224L59.7682 21.7379L56.0607 24.0255L52.8265 27.733L50.0656 29.5473L47.9358 29.3896L44.7805 30.0207L43.1239 28.7585L37.5233 30.2573L36.4189 31.0461L36.4978 32.7026L35.3934 33.8859L35.3145 37.6723L34.2891 38.8555V39.4077L36.8922 42.0897L38.6276 43.1152L41.3885 46.0339L42.6507 47.7693L43.0451 50.4513L45.9637 49.8202L48.5669 49.7414L50.0656 50.2147L52.5899 49.5047L53.852 50.5302L55.4297 55.5787L57.7962 56.9197L59.4527 57.0775L61.7403 54.8688L65.3689 60.3117L64.4223 61.7315V63.3092L63.4757 65.2024L63.7913 65.6757L67.9721 66.149L68.5242 69.9354L69.9441 71.5919L69.3131 76.4826L70.8907 80.6634L70.8118 82.8722L71.0485 83.5032L71.8373 85.3964V86.5008L71.1274 87.3685L78.1479 85.9486L79.0945 85.3964L81.3033 85.6331L81.8554 85.5542L82.802 85.002L85.4052 82.8722L86.5884 81.0578L86.8251 80.5057L86.2729 77.2715L86.6673 73.4062L85.9573 69.6198L86.194 67.9633L87.6928 62.1259L89.1127 60.4694L89.2704 58.2607L90.6114 57.3141L90.6903 56.7619L90.4537 53.5277L89.1916 51.0823L87.2195 50.1358L85.1685 48.3214L83.0387 48.0059L76.3336 39.3288L75.6237 37.83L75.4659 36.1735L73.8094 33.9648L72.074 32.7816L71.2063 29.6262V25.3665L70.5752 23.3156Z" fill="white"></path>
  <path d="M33.5812 27.8121L33.2656 27.4966L33.8178 27.9699L33.5812 27.8121Z" fill="white"></path>
  <path d="M35.3125 29.4688L35.4703 29.7054L35.7858 30.1787L35.3125 29.4688Z" fill="white"></path>
  <path d="M41.9404 72.0653L41.546 71.4342L41.2305 71.1187L41.9404 72.0653Z" fill="white"></path>
  <path d="M40.5217 16.1376L40.6006 14.7178L41.7838 13.4556L39.8906 13.2979L40.2062 11.0103" stroke="#494E77" stroke-linecap="round" stroke-linejoin="round"></path>
  <path d="M68.601 20.0812L66.0767 17.2415L63.3158 15.506L60.7127 14.7961L59.6872 14.875L55.5064 12.5874L53.9287 12.824L52.9821 12.3507L50.8523 11.9563L48.0914 12.2718L42.333 10.4575L40.2031 11.0097" stroke="#494E77" stroke-linecap="round" stroke-linejoin="round"></path>
  <path d="M40.046 11.1281L37.364 10.8126L34.682 8.91943L33.2621 9.62937L30.58 9.31385L26.8726 10.3393L23.875 12.7058" stroke="#494E77" stroke-linecap="round" stroke-linejoin="round"></path>
  <path d="M24.0352 12.5879L24.2718 14.1655L25.6917 16.532L26.4016 19.214L28.3737 21.8172L28.1371 25.6825L33.1067 27.4179L33.2645 27.4968" stroke="#494E77" stroke-linecap="round" stroke-linejoin="round"></path>
  <path d="M24.0352 12.5879L20.5644 14.9544L19.3811 16.6898L17.409 17.4786L16.2258 18.1886L12.1239 17.1631L11.0195 17.242V18.7407L9.7574 22.1327V28.6011L6.83873 31.1254L5.73438 31.5198" stroke="#494E77" stroke-linecap="round" stroke-linejoin="round"></path>
  <path d="M5.73297 31.5197L5.25968 31.7563L3.60314 31.6774L1.31553 34.1228L1.07888 34.5961L1 35.2272L1.86771 37.1992L1.39441 40.6701L3.36649 43.2732L6.36404 45.7975L6.5218 46.8229L8.8094 49.8205V51.477L11.0181 53.7646L11.097 57.1566L10.3871 60.3908L12.1225 64.4927L15.9877 67.4902L16.2244 68.1213L17.4865 69.1468L17.8021 71.2766L18.8275 72.4599L22.6139 73.012L26.2425 74.2742L28.0568 76.0096" stroke="#494E77" stroke-linecap="round" stroke-linejoin="round"></path>
  <path d="M5.73438 31.5195L7.9431 34.9904L9.36299 35.937L10.0729 35.3848L10.7829 35.937L11.8872 36.2525L13.3071 37.6724H14.4115L14.8848 38.5401L16.068 38.8556L18.9867 40.5122H20.801L21.6687 41.2221L25.7706 41.1432L27.3483 44.1408L30.8191 46.8228" stroke="#494E77" stroke-linecap="round" stroke-linejoin="round"></path>
  <path d="M30.8187 46.8232L29.8721 47.8487L28.1367 50.2152L28.2945 51.2407V51.6351L29.6355 54.5538L32.1597 57.3936L31.9231 58.419L32.8697 60.0756L30.1088 62.2843L29.32 65.4396L30.0299 67.3328L31.1343 67.885L30.1088 69.9359L31.7653 70.4092L31.4498 70.8037" stroke="#494E77" stroke-linecap="round" stroke-linejoin="round"></path>
  <path d="M31.4481 70.8032L30.3438 71.9865L30.5015 74.0374" stroke="#494E77" stroke-linecap="round" stroke-linejoin="round"></path>
  <path d="M30.5015 74.0374L30.3438 71.9865L31.4481 70.8032" stroke="#494E77" stroke-linecap="round" stroke-linejoin="round"></path>
  <path d="M37.7612 69.2256V70.3299L37.0512 71.7498L35.5525 73.2486L30.4251 74.5896L28.0586 76.0095" stroke="#494E77" stroke-linecap="round" stroke-linejoin="round"></path>
  <path d="M28.0586 76.0097L30.504 74.0376" stroke="#494E77" stroke-linecap="round" stroke-linejoin="round"></path>
  <path d="M28.0586 76.0098L30.1095 78.6129L31.5294 79.4017L34.7636 80.0328L36.1046 81.6893L36.6568 82.0048L38.7867 82.2415L39.9699 83.3459L42.1786 83.4248L47.306 85.2391L49.4359 86.8167L50.5402 86.659L52.5912 87.29L54.0899 86.7378L54.6421 86.659L57.7186 88.8677L61.5049 88.3155L63.5559 89.1832L65.0547 88.4733L67.1845 88.2366L68.4466 87.1322L71.1286 87.3689" stroke="#494E77" stroke-linecap="round" stroke-linejoin="round"></path>
  <path d="M71.1258 87.3689L78.1464 85.949L79.093 85.3969L81.3017 85.6335L81.8539 85.5546L82.8005 85.0024L85.4036 82.8726L86.5869 81.0583L86.8235 80.5061L86.2713 77.2719L86.6657 73.4066L85.9558 69.6203L86.1924 67.9637L87.6912 62.1264L89.1111 60.4698L89.2689 58.2611L90.6099 57.3145L90.6888 56.7623L90.4521 53.5282L89.19 51.0828L87.2179 50.1362L85.167 48.3219L83.0371 48.0064L76.3321 39.3292L75.6221 37.8305L75.4644 36.1739L73.8078 33.9652L72.0724 32.782L71.2047 29.6267V25.367L70.5736 23.316L68.6016 20.0029V20.0818" stroke="#494E77" stroke-linecap="round" stroke-linejoin="round"></path>
  <path d="M68.6033 20.0814L65.3691 22.8423L64.5803 22.9212L63.5548 20.6336L63.4759 18.4248L62.766 18.2671L63.0815 19.2926L62.8448 19.7659L61.3461 21.4224L59.7684 21.7379L56.0609 24.0255L52.8267 27.733L50.0658 29.5473L47.936 29.3896L44.7807 30.0206L43.1241 28.7585L37.5234 30.2573" stroke="#494E77" stroke-linecap="round" stroke-linejoin="round"></path>
  <path d="M40.0469 16.6899L40.5202 16.1377" stroke="#494E77" stroke-linecap="round" stroke-linejoin="round"></path>
  <path d="M37.5234 30.2573L38.8644 28.5219L38.1545 26.9442L38.7067 21.4224L39.2589 18.9771L39.7322 18.346L40.0477 16.6895" stroke="#494E77" stroke-linecap="round" stroke-linejoin="round"></path>
  <path d="M40.0469 16.6899L40.5202 16.2166V16.1377" stroke="#494E77" stroke-linecap="round" stroke-linejoin="round"></path>
  <path d="M35.3166 29.4687L34.8433 28.7587L33.5812 27.8121L33.2656 27.4966" stroke="#494E77" stroke-linecap="round" stroke-linejoin="round"></path>
  <path d="M33.2656 27.4966L33.8178 27.9699L34.8433 28.8376L35.1588 29.232L35.3166 29.4687" stroke="#494E77" stroke-linecap="round" stroke-linejoin="round"></path>
  <path d="M35.3125 29.4688L35.4703 29.7054L35.7858 30.1787" stroke="#494E77" stroke-linecap="round" stroke-linejoin="round"></path>
  <path d="M35.7858 30.1787L35.3125 29.4688" stroke="#494E77" stroke-linecap="round" stroke-linejoin="round"></path>
  <path d="M36.8922 42.09L34.2891 39.408V38.8558L35.3145 37.6725L35.3934 33.8862L36.4978 32.7029L36.4189 31.0464" stroke="#494E77" stroke-linecap="round" stroke-linejoin="round"></path>
  <path d="M36.4201 31.0464L35.7891 30.1787" stroke="#494E77" stroke-linecap="round" stroke-linejoin="round"></path>
  <path d="M37.5262 30.2578L36.4219 31.0466" stroke="#494E77" stroke-linecap="round" stroke-linejoin="round"></path>
  <path d="M64.4207 61.7317L65.3673 60.3118L61.7387 54.8689L59.4511 57.0776L57.7946 56.9198L55.4281 55.5788L53.8504 50.5303L52.5883 49.5049L50.0641 50.2148L48.5653 49.7415L45.9622 49.8204L43.0435 50.4514L42.6491 47.7694L41.3869 46.034L38.626 43.1153L36.8906 42.0898" stroke="#494E77" stroke-linecap="round" stroke-linejoin="round"></path>
  <path d="M30.8203 46.8228L35.08 44.6141L36.8943 42.0898" stroke="#494E77" stroke-linecap="round" stroke-linejoin="round"></path>
  <path d="M42.9648 73.0909L44.1481 74.0376L43.9903 75.1419L46.909 77.5084L49.0388 77.0351L52.3519 75.063L53.6929 73.3276L56.8482 71.1189L56.6905 67.8847L57.3215 64.7294L58.8992 61.2585L60.9501 59.4442L61.9756 59.0498L63.7899 60.233L64.421 61.7318" stroke="#494E77" stroke-linecap="round" stroke-linejoin="round"></path>
  <path d="M71.0493 83.5036L70.8127 82.8725L70.8916 80.6638L69.3139 76.483L69.945 71.5923L68.5251 69.9357L67.9729 66.1494L63.7921 65.6761L63.4766 65.2028L64.4232 63.3096V61.7319" stroke="#494E77" stroke-linecap="round" stroke-linejoin="round"></path>
  <path d="M42.9659 73.0907L42.4926 72.6963L41.546 71.4342L41.2305 71.1187" stroke="#494E77" stroke-linecap="round" stroke-linejoin="round"></path>
  <path d="M37.7617 69.2257L39.1027 68.3579L41.2326 71.1188" stroke="#494E77" stroke-linecap="round" stroke-linejoin="round"></path>
  <path d="M41.2305 71.1187L41.9404 72.0653L42.4137 72.6963L42.7292 72.8541L42.9659 73.0907" stroke="#494E77" stroke-linecap="round" stroke-linejoin="round"></path>
  <path d="M43.2015 73.3275L42.9648 73.0908" stroke="#494E77" stroke-linecap="round" stroke-linejoin="round"></path>
  <path d="M30.5039 74.0374L35.5524 72.933L37.7611 69.2256" stroke="#494E77" stroke-linecap="round" stroke-linejoin="round"></path>
  <path d="M71.1258 87.3687L71.8357 86.501V85.3966L71.0469 83.5034" stroke="#494E77" stroke-linecap="round" stroke-linejoin="round"></path>
  <path d="M71.1258 87.3687L71.8357 86.501L71.7568 85.3966L71.0469 83.5034" stroke="#494E77" stroke-linecap="round" stroke-linejoin="round"></path>
  <path d="M164.844 34.3206L162.95 32.5063L158.77 39.1325L156.324 38.3437L159.48 40.5524L162.556 45.9164L163.266 43.55L165.711 41.0257L165.869 38.4226L166.027 38.3437L166.263 37.5548L164.844 34.3206Z" fill="white"></path>
  <path d="M131.316 32.6647L141.334 33.5324L150.957 30.6926L147.802 28.1683L145.436 27.3795L144.883 26.7484L145.199 25.013L144.647 25.5652L142.438 24.4608L135.733 24.2242L133.288 21.9366L131.237 25.7229H129.659L128.791 24.1453L128.002 24.0664L125.952 24.8552L123.901 23.7509L123.033 23.4354L123.822 21.0689L122.638 18.7812L123.427 17.2036L120.272 15.6259L119.246 13.1806L115.46 9.70971L113.961 8.92088L116.88 6.79104L117.117 5.21338L114.671 6.00221L114.829 6.86995L112.778 8.68424L112.147 11.2874L110.885 12.4706L109.071 12.3128L109.386 14.6793L106.941 17.2036L104.574 16.7303L104.417 16.8881L102.523 22.4887L105.048 22.7254L105.758 24.2242L102.129 28.0105V28.9572L108.361 25.8018L113.409 25.2496L115.302 25.013L116.17 26.1173L116.959 27.0639L123.033 30.6137L131.316 32.6647Z" fill="white"></path>
  <path d="M141.334 33.5318L131.316 32.6641L123.033 30.6131L116.959 27.0634L116.17 26.1168L115.302 25.0913L113.409 25.2491L108.361 25.8013L102.129 28.9566L104.259 30.6131L106.783 30.2187L110.727 33.8473L112.384 33.374L114.75 34.6362L116.249 33.7684L117.274 35.0306L116.959 36.6871L115.539 38.6592L116.091 40.2368L119.325 40.4735L119.483 41.2623L117.274 41.6567L116.486 42.9189L116.643 44.6543L118.063 46.7052L116.88 50.8072L118.063 51.7537L121.376 52.937L117.117 54.1991L115.776 55.3824L115.302 56.0923L116.328 57.5911L119.404 59.0899L122.402 63.4284L124.453 64.9272L124.689 65.4794L126.267 66.1893L130.132 73.3676L130.369 74.2353L128.397 77.2329L125.794 77.7851L123.191 76.9962H123.033L121.85 75.7341L117.905 74.1565L116.407 68.398L111.989 68.0036L109.465 68.1614L112.147 73.3676L113.725 75.3397L116.959 75.5764L117.353 77.2329L116.564 80.546L114.908 82.3603L111.358 84.3324L114.592 85.5156L118.063 83.228L118.931 83.6224L119.168 85.3578L117.984 91.2741L118.694 91.8263L120.903 89.2231L122.56 89.5386L123.27 92.9306L125.478 91.6685L127.056 93.6405L128.791 93.8772L131 91.3529L130.763 88.9076L131.947 87.6454L133.682 87.961L134.865 89.302L135.417 91.8263L137.468 90.4063L140.15 90.2486L141.57 89.0654L141.649 88.1976L136.916 85.7523L133.84 81.0193L134.471 79.4416L136.127 79.205L136.443 78.4162L135.891 76.1285L138.415 72.8944L142.517 73.2099L140.782 71.3956L140.308 69.739L141.334 67.2936L143.621 66.347L145.751 64.8483L147.25 60.9042L144.726 60.8252L144.331 59.1687L142.675 58.6954L140.782 55.8556L140.466 54.1202L138.099 53.3314L138.415 52.6215L140.308 51.1227L140.15 49.4661L141.176 48.204H141.255L142.754 47.2574L143.148 44.6543L145.278 43.0766L147.25 40.158L150.721 37.8703L149.538 36.3716L148.118 35.8194L149.695 32.9007L149.616 35.0306L150.247 35.6616L151.115 33.1374L151.036 30.6131L150.957 30.692L141.334 33.5318Z" fill="white"></path>
  <path d="M101.737 3.00443L98.4236 0.559082L98.0291 0.637946L96.2148 2.53115L96.4515 2.92557L98.5813 3.63549L99.2913 5.13428L101.816 3.39885L101.737 3.00443Z" fill="white"></path>
  <path d="M150.959 30.6924L141.336 33.5321L131.317 32.6645L123.035 30.6135L116.961 27.0637L116.172 26.1172" stroke="#494E77" stroke-linecap="round" stroke-linejoin="round"></path>
  <path d="M102.129 28.9571V28.0105L105.758 24.2241L105.048 22.7253L102.523 22.4887L104.417 16.888L104.574 16.7303L106.941 17.2035L109.386 14.6793L109.071 12.3128L110.885 12.4706L112.147 11.2873L112.778 8.6842L114.829 6.8699L114.671 6.00221L117.117 5.21338L116.88 6.79104L113.961 8.92084L115.46 9.70966L119.246 13.1805L120.272 15.6259L123.427 17.2035L122.638 18.7812L123.822 21.0688L123.033 23.4353L123.901 23.7509L125.952 24.8552L128.002 24.0664L128.791 24.1453L129.659 25.7229H131.237L133.288 21.9365L135.733 24.2241L142.438 24.4608L144.647 25.5652L145.199 25.013L144.883 26.7484L145.436 27.3794L147.802 28.1683L150.957 30.6925" stroke="#494E77" stroke-linecap="round" stroke-linejoin="round"></path>
  <path d="M102.129 28.9565L104.259 30.6131L106.783 30.2186L110.727 33.8473L112.384 33.374L114.75 34.6361L116.249 33.7684L117.274 35.0305L116.959 36.6871L115.539 38.6591L116.091 40.2368L119.325 40.4734L119.483 41.2623L117.274 41.6567L116.486 42.9188L116.643 44.6543L118.063 46.7052L116.88 50.8071L118.063 51.7537L121.376 52.937L117.117 54.1991L115.776 55.3823L115.302 56.0923L116.328 57.591L119.404 59.0898L122.402 63.4284L124.453 64.9271L124.689 65.4793L126.267 66.1893L130.132 73.3676L130.369 74.2353L128.397 77.2329L125.794 77.7851L123.191 76.9962H123.033L121.85 75.7341L117.905 74.1564L116.407 68.398L111.989 68.0036L109.465 68.1613L112.147 73.3676L113.725 75.3397L116.959 75.5763L117.353 77.2329L116.564 80.546L114.908 82.3603L111.358 84.3323L114.592 85.5156L118.063 83.228L118.931 83.6224L119.168 85.3578L117.984 91.274L118.694 91.8262L120.903 89.2231L122.56 89.5386L123.27 92.9305L125.478 91.6684L127.056 93.6405L128.791 93.8771L131 91.3529L130.763 88.9075L131.947 87.6454L133.682 87.9609L134.865 89.3019L135.417 91.8262L137.468 90.4063L140.15 90.2485L141.57 89.0653L141.649 88.1976L136.916 85.7522L133.84 81.0192L134.471 79.4416L136.127 79.2049L136.443 78.4161L135.891 76.1285L138.415 72.8943L142.517 73.2098L140.782 71.3955L140.308 69.739L141.334 67.2936L143.621 66.347L145.751 64.8483L147.25 60.9041L144.726 60.8252L144.331 59.1687L142.675 58.6954L140.782 55.8556L140.466 54.1202L138.099 53.3314L138.415 52.6214L140.308 51.1226L140.15 49.4661L141.176 48.204H141.255L142.754 47.2574L143.148 44.6543L145.278 43.0766L147.25 40.1579L150.721 37.8703L149.538 36.3716L148.118 35.8194L149.695 32.9007L149.616 35.0305L150.247 35.6616L151.115 33.1373L151.036 30.6131L150.957 30.692" stroke="#494E77" stroke-linecap="round" stroke-linejoin="round"></path>
  <path d="M101.737 3.00443L101.816 3.39885L99.2913 5.13428L98.5813 3.63553L96.4515 2.92557L96.2148 2.53115L98.0292 0.637946L98.4236 0.559082L101.737 3.00443Z" stroke="#494E77" stroke-linecap="round" stroke-linejoin="round"></path>
  <path d="M113.409 25.2495L108.361 25.8017L102.129 28.957" stroke="#494E77" stroke-linecap="round" stroke-linejoin="round"></path>
  <path d="M116.175 26.1168L115.307 25.0913L113.414 25.2491" stroke="#494E77" stroke-linecap="round" stroke-linejoin="round"></path>
  <path d="M116.175 26.1171L115.307 25.0127L113.414 25.2493" stroke="#494E77" stroke-linecap="round" stroke-linejoin="round"></path>
  <path d="M164.844 34.3206L166.263 37.5549L166.027 38.3437L165.869 38.4226L165.711 41.0257L163.266 43.55L162.556 45.9164L159.48 40.5524L156.324 38.3437L158.77 39.1325L162.95 32.5063L164.844 34.3206Z" stroke="#494E77" stroke-linecap="round" stroke-linejoin="round"></path>
  <circle cx="16.5" cy="16.5" r="4.5" fill="#EC7857"></circle>
  <circle cx="146.5" cy="38.5" r="4.5" fill="#EC7857"></circle>
</svg>
