<?xml version="1.0" encoding="UTF-8"?>
<svg xmlns="http://www.w3.org/2000/svg" width="90" height="48" viewBox="0 0 90 48" fill="none">
  <path d="M56.7856 5.12523C56.1584 4.60256 55.3545 4.34044 54.5398 4.39291C53.7249 4.41009 52.9097 4.37745 52.0987 4.29523C51.7337 4.38929 51.3526 4.40306 50.9818 4.33564C50.6109 4.26821 50.2591 4.12122 49.9505 3.90469C48.9253 3.31883 48.2418 3.02588 47.9 3.02588C48.0953 3.5141 47.9 4.05113 47.2165 4.73464C46.6307 5.27168 46.6307 5.85754 47.2165 6.44339C47.5016 7.37878 47.6656 8.34682 47.7048 9.32388V9.76329C47.7331 10.5898 47.4743 11.4006 46.9724 12.0579C46.5938 12.4893 46.2962 12.9855 46.0936 13.5225C45.9332 14.0333 45.6855 14.5123 45.3613 14.9384C44.612 15.1477 43.843 15.2786 43.0667 15.3289C42.6737 15.3462 42.2964 15.488 41.9893 15.7337C41.6822 15.9794 41.4611 16.3164 41.3579 16.6959C40.4791 18.4535 38.4775 19.2835 35.2552 19.2346C35.2064 19.3811 35.4993 20.0158 36.134 20.9923C36.8175 22.0663 37.2569 22.8475 37.2569 23.4334C37.8453 24.1724 38.1868 25.0774 38.2333 26.0209C38.309 26.9553 38.4394 27.8846 38.6239 28.8037C38.6496 29.519 38.7812 30.2264 39.0145 30.903C39.1896 31.2169 39.4273 31.4916 39.7128 31.7099C39.9983 31.9283 40.3256 32.0856 40.6744 32.1724C41.065 32.3677 42.3344 32.563 44.5802 32.8559C45.7278 33.505 46.9859 33.9354 48.2906 34.1253C48.6368 34.1352 48.9769 34.2187 49.2884 34.3703C49.5998 34.5218 49.8755 34.7378 50.097 35.0041C50.2889 35.2615 50.5601 35.4487 50.8689 35.5369C51.1776 35.6251 51.5068 35.6095 51.8058 35.4923C52.0518 35.6434 52.3385 35.7151 52.6267 35.6977C52.915 35.6802 53.1909 35.5744 53.4169 35.3947C54.198 34.9064 54.7351 34.7599 55.028 34.8088C56.45 34.7584 57.8681 34.628 59.2755 34.4182C59.2995 34.1496 59.4141 33.897 59.6003 33.7019C59.7865 33.5068 60.0335 33.3806 60.3007 33.3441C61.0819 33.2953 61.6677 33.2465 62.0095 33.1977C62.3237 33.2951 62.6543 33.328 62.9815 33.2944C63.3087 33.2609 63.6257 33.1615 63.9135 33.0024C64.5322 32.7853 65.0863 32.4159 65.5247 31.9283C65.4199 31.48 65.4897 31.0087 65.7199 30.6101C66.0793 30.3386 66.4068 30.0274 66.6964 29.6825C66.9903 29.8057 67.244 30.0086 67.4287 30.2684C67.7705 30.6101 67.6728 30.8054 67.1846 30.7566C66.3058 31.0495 66.1593 31.3913 66.7452 31.8795C67.4775 32.5141 67.8193 32.9536 67.6728 33.2465C67.9284 33.3601 68.1516 33.5356 68.3221 33.7573C68.4926 33.979 68.605 34.2397 68.6492 34.5158C68.7083 34.8992 68.8065 35.2754 68.9422 35.6388C69.5987 36.1541 70.0908 36.8497 70.358 37.6404C70.5088 38.014 70.5822 38.4144 70.5738 38.8172C70.5654 39.22 70.4754 39.6169 70.3092 39.9838C70.693 40.4445 71.1179 40.8694 71.5785 41.2533C72.1238 41.6624 72.6158 42.138 73.0432 42.669C73.3464 43.1602 73.788 43.5509 74.3126 43.792C74.8642 44.0327 75.3622 44.3813 75.7772 44.8172C77.3457 44.9201 78.8996 45.1818 80.4153 45.5983C80.9821 46.0101 81.6318 46.2934 82.3193 46.4283C83.2469 46.5748 83.9792 46.7212 84.4675 46.8189C84.7936 46.8702 85.1269 46.8534 85.4463 46.7694C85.7656 46.6853 86.064 46.5359 86.3227 46.3307C87.055 45.8424 87.3968 45.3542 87.4456 44.866C88.245 44.0043 88.6821 42.8679 88.6661 41.6926C88.8591 41.4481 88.9908 41.1611 89.0503 40.8553C89.1097 40.5496 89.0952 40.234 89.0079 39.935C88.8624 39.4442 88.829 38.927 88.9102 38.4216C89.0079 36.6152 88.8126 35.4923 88.3244 35.0529C87.8528 34.306 87.239 33.659 86.518 33.1488C85.7368 32.5141 85.2486 31.8795 85.151 31.2448C84.9388 31.5496 84.7107 31.8429 84.4675 32.1236C84.2863 32.2231 84.0813 32.2712 83.8748 32.2626C83.6682 32.254 83.468 32.1891 83.2957 32.0748C82.5433 32.2025 81.7709 32.027 81.1476 31.5865C80.5786 31.2369 79.8986 31.1148 79.2435 31.2448C79.1062 30.9725 78.8973 30.7428 78.6393 30.5802C78.3812 30.4176 78.0838 30.3284 77.7789 30.3221C77.3395 30.2684 76.7048 30.2244 75.7772 30.1268C74.9961 30.7126 73.9708 30.7615 72.7991 30.4197C72.1156 30.1756 71.1391 29.8827 69.8698 29.3945C69.3327 28.7598 69.1375 27.9298 69.1863 26.7093C69.3614 25.7594 69.4431 24.7946 69.4304 23.8288C68.3075 22.4618 68.0634 21.1924 68.6004 20.0207C68.9422 19.0443 69.1863 18.2631 69.3327 17.7261C69.5801 16.9185 69.6138 16.0606 69.4304 15.2362C69.0396 14.2918 68.7452 13.3104 68.5516 12.3069C68.1282 11.8035 67.6537 11.3453 67.1358 10.9399C66.8614 10.7618 66.631 10.524 66.4619 10.2441C66.2928 9.96415 66.1893 9.64954 66.1593 9.32388C65.836 8.9487 65.44 8.64284 64.9953 8.42469C64.5506 8.20654 64.0664 8.08063 63.5718 8.05453C62.5978 7.97725 61.6421 7.74656 60.7401 7.37102C59.2267 5.85755 57.9085 5.12523 56.7856 5.12523Z" fill="white"></path>
  <path d="M46.6832 5.56445C46.4879 5.6621 46.0974 5.90623 45.6092 6.19916C45.1209 6.49209 44.7792 6.39447 44.5351 6.10154C44.3398 6.34565 43.9004 6.44324 43.2657 6.29678C42.631 6.15031 42.2405 6.248 42.0452 6.58976C41.4925 6.48097 40.9213 6.51454 40.3852 6.68738C39.9139 6.77371 39.4846 7.01414 39.1647 7.37089C39.7017 7.56618 39.7506 7.90792 39.36 8.39613C38.9694 8.88435 39.1159 9.07961 39.7506 9.22608C41.0609 10.1708 42.4684 10.9727 43.9492 11.6184C44.1445 11.6184 44.5351 11.9113 45.1209 12.4484V12.4972C45.1944 12.5337 45.2606 12.5833 45.3162 12.6436L45.365 12.6925C45.8533 13.1807 46.2927 13.083 46.4879 12.4972C47.1822 11.7434 47.6108 10.7833 47.7085 9.76316V9.32376C47.7085 9.17729 47.6597 8.98202 47.6597 8.78673C47.4698 7.67615 47.1418 6.59363 46.6832 5.56445Z" fill="white"></path>
  <path d="M43.7052 11.6676L42.4358 11.0817C41.9376 10.8525 41.4634 10.5745 41.02 10.2518C40.4341 9.81239 39.9947 9.51945 39.7018 9.32416C39.3511 9.1808 39.0349 8.96442 38.7742 8.68945C38.5417 8.83011 38.2804 8.91636 38.0098 8.94173C37.7393 8.96709 37.4665 8.93094 37.2119 8.83594C36.6723 8.90962 36.1823 9.18961 35.8449 9.61708C35.7473 9.76354 35.5032 9.81234 35.0638 9.7147C34.8685 9.66587 34.7708 9.81235 34.722 10.1541C34.6732 10.4959 34.5755 10.6423 34.3314 10.6423C34.1362 10.7888 34.185 10.9841 34.4291 11.277C34.6732 11.57 34.722 11.7164 34.5755 11.8629C34.3803 11.7164 34.2338 11.7164 34.2338 11.9605C34.2208 11.999 34.2156 12.0397 34.2184 12.0802C34.2212 12.1206 34.2319 12.1602 34.2501 12.1965C34.2683 12.2328 34.2934 12.2651 34.3241 12.2917C34.3549 12.3182 34.3905 12.3384 34.4291 12.3511C34.4018 12.4312 34.392 12.5163 34.4004 12.6005C34.4088 12.6847 34.4353 12.7662 34.4779 12.8393C34.5372 12.9233 34.5768 13.0196 34.5937 13.1211C34.6106 13.2225 34.6044 13.3265 34.5755 13.4252C34.795 13.8586 34.959 14.3178 35.0638 14.7922C35.0949 15.0087 35.0609 15.2297 34.9661 15.4269C34.8806 15.6444 34.8636 15.8829 34.9173 16.1104C34.8197 16.6474 34.722 16.9403 34.6244 16.9891C34.7347 17.1483 34.802 17.3333 34.8197 17.5262C34.8197 17.7703 34.8685 17.9656 35.0638 18.0144C35.1126 18.112 35.0638 18.3562 34.9173 18.7956C34.8197 19.0397 34.9173 19.1861 35.2591 19.0885C36.3331 19.0885 37.0655 19.0885 37.456 19.0397C37.96 18.952 38.4517 18.8045 38.9207 18.6003C39.4577 18.3562 39.8483 18.1609 40.0924 18.0632C40.4761 17.7438 40.8058 17.3646 41.0688 16.9403C41.191 16.4577 41.4445 16.0183 41.8012 15.671C42.2658 15.3648 42.8072 15.1956 43.3634 15.1828C44.1934 15.0851 44.6816 14.9875 44.8281 14.9875C45.121 14.9875 45.4628 14.7434 45.7557 14.2551C45.8489 14.111 45.9026 13.9449 45.9111 13.7735C45.9197 13.602 45.8829 13.4314 45.8045 13.2787L45.5604 12.937C45.4752 12.813 45.377 12.6984 45.2675 12.5952C45.2187 12.5952 45.1698 12.5464 45.121 12.4976C45.0722 12.4487 45.0722 12.4487 45.0234 12.3999C44.5713 12.1793 44.1313 11.9348 43.7052 11.6676Z" fill="white"></path>
  <path d="M45.1216 12.449C45.0839 12.4454 45.0489 12.4279 45.0234 12.3999C45.0725 12.449 45.1216 12.449 45.1216 12.4981V12.449Z" fill="white"></path>
  <path d="M45.3164 12.644C45.2607 12.5837 45.1946 12.5341 45.1211 12.4976C45.1699 12.5464 45.2187 12.5952 45.2676 12.5952C45.2676 12.6081 45.2727 12.6205 45.2819 12.6297C45.291 12.6388 45.3034 12.644 45.3164 12.644Z" fill="white"></path>
  <path d="M1.32643 4.5395C1.17996 5.46711 1.32643 6.05297 1.66818 6.24826C1.89472 7.33539 2.47917 8.31524 3.32811 9.03113C3.71869 9.32406 4.35337 9.71463 5.18334 10.2517C5.75722 10.6506 6.19915 11.2115 6.4527 11.8627C6.56057 12.1203 6.72026 12.3528 6.92184 12.546C7.12341 12.7392 7.36256 12.8888 7.62442 12.9857C8.2591 13.2786 8.60085 13.6691 8.60085 14.1085C8.89799 14.1308 9.19304 14.044 9.43082 13.8644C9.57729 13.7668 9.67493 13.9133 9.72375 14.255C10.0167 14.6944 10.6025 14.8897 11.5302 14.8409C12.6042 14.7432 13.3366 14.6944 13.7271 14.6456C13.6783 14.4015 13.9224 14.0597 14.313 13.5715C14.5055 13.4117 14.6585 13.2096 14.7601 12.981C14.8617 12.7523 14.9092 12.5033 14.8988 12.2533C15.143 12.1069 15.2894 11.7163 15.4359 11.0328C15.4804 10.6028 15.6501 10.1954 15.9241 9.86107C16.2304 9.75627 16.5085 9.58252 16.737 9.35325C16.9655 9.12397 17.1383 8.84529 17.2421 8.53868C17.3459 8.23206 17.3778 7.9057 17.3355 7.58477C17.2933 7.26384 17.1778 6.95693 16.9982 6.68766C17.4795 5.93048 17.8882 5.12949 18.2187 4.29539C18.7069 3.95364 19.0975 3.70953 19.2928 3.56307C19.7322 3.22131 19.5857 2.92842 18.9999 2.68431C18.5708 2.45879 18.2278 2.09852 18.0234 1.65901C17.6817 1.12197 17.3399 0.780267 16.9494 0.731445C16.3221 1.07343 15.6475 1.32023 14.9477 1.46377C14.5083 1.56141 13.8248 1.65902 12.8972 1.85431C12.2462 1.90313 11.9533 2.29371 12.0184 3.02604C12.116 3.90483 12.0184 4.44189 11.8231 4.63718C11.6819 4.17531 11.5838 3.70132 11.5302 3.22134C11.4325 2.63548 11.1884 2.24487 10.7978 2.14723C10.4857 2.03715 10.1502 2.0108 9.82465 2.07076C9.49915 2.13072 9.19503 2.27493 8.9426 2.48901C8.67598 2.6884 8.45828 2.94588 8.30601 3.24196C8.15374 3.53803 8.07092 3.86491 8.06382 4.19777C8.30422 4.61772 8.45391 5.08337 8.50321 5.56474C8.55203 6.05296 8.35675 5.95533 7.91735 5.27182C7.90144 4.92179 7.81036 4.57932 7.65029 4.26762C7.49023 3.95592 7.26494 3.68233 6.98974 3.46545C6.71499 3.25471 6.39989 3.10263 6.06397 3.01865C5.72805 2.93467 5.37847 2.92058 5.03687 2.97723C4.26265 2.83016 3.46766 2.83016 2.69343 2.97723C2.38788 2.95723 2.08297 3.025 1.81464 3.17253C1.76582 3.17253 1.86347 3.02606 2.10757 2.68431C2.10757 2.29374 1.81464 2.24487 1.17996 2.63544C0.545281 3.02602 0.49646 3.22135 0.984677 3.41664C1.32643 3.36781 1.42407 3.75835 1.32643 4.5395Z" fill="white"></path>
  <path d="M47.7048 9.76329C47.7331 10.5898 47.4743 11.4006 46.9724 12.0579C46.5938 12.4893 46.2962 12.9855 46.0936 13.5225C45.9332 14.0333 45.6855 14.5123 45.3613 14.9384C44.612 15.1477 43.843 15.2786 43.0667 15.3289C42.6737 15.3462 42.2964 15.488 41.9893 15.7337C41.6822 15.9794 41.4611 16.3164 41.3579 16.6959C40.4791 18.4535 38.4775 19.2835 35.2552 19.2346C35.2064 19.3811 35.4993 20.0158 36.134 20.9923C36.8175 22.0663 37.2569 22.8475 37.2569 23.4334C37.8453 24.1724 38.1868 25.0774 38.2333 26.0209C38.309 26.9553 38.4394 27.8846 38.6239 28.8037C38.6496 29.519 38.7812 30.2264 39.0145 30.903C39.1896 31.2169 39.4273 31.4916 39.7128 31.7099C39.9983 31.9282 40.3256 32.0856 40.6744 32.1724C41.065 32.3677 42.3344 32.563 44.5802 32.8559C45.7278 33.505 46.9859 33.9354 48.2906 34.1252C48.6368 34.1352 48.9769 34.2187 49.2884 34.3702C49.5998 34.5218 49.8755 34.7378 50.097 35.0041C50.2889 35.2615 50.5601 35.4487 50.8689 35.5369C51.1776 35.6251 51.5068 35.6095 51.8058 35.4923C52.0518 35.6434 52.3385 35.7151 52.6267 35.6976C52.915 35.6802 53.1909 35.5744 53.4169 35.3947C54.198 34.9064 54.7351 34.7599 55.028 34.8088C56.45 34.7584 57.8681 34.628 59.2755 34.4182C59.2995 34.1496 59.414 33.897 59.6003 33.7019C59.7865 33.5068 60.0335 33.3806 60.3007 33.3441C61.0819 33.2953 61.6677 33.2465 62.0095 33.1977C62.3237 33.2951 62.6543 33.328 62.9815 33.2944C63.3087 33.2608 63.6257 33.1615 63.9135 33.0024C64.5322 32.7853 65.0863 32.4159 65.5247 31.9283C65.4199 31.48 65.4897 31.0087 65.7199 30.6101C66.0793 30.3386 66.4068 30.0274 66.6964 29.6825C66.9903 29.8057 67.244 30.0086 67.4287 30.2684C67.7704 30.6101 67.6728 30.8054 67.1846 30.7566C66.3058 31.0495 66.1593 31.3912 66.7452 31.8795C67.4775 32.5141 67.8193 32.9536 67.6728 33.2465C67.9284 33.36 68.1516 33.5356 68.3221 33.7573C68.4926 33.979 68.605 34.2397 68.6492 34.5158C68.7083 34.8992 68.8065 35.2754 68.9422 35.6388C69.5987 36.1541 70.0908 36.8497 70.358 37.6404C70.5088 38.014 70.5822 38.4144 70.5738 38.8172C70.5654 39.22 70.4754 39.6168 70.3092 39.9838C70.693 40.4445 71.1179 40.8694 71.5785 41.2533C72.1215 41.6651 72.6132 42.1404 73.0432 42.669C73.3464 43.1602 73.788 43.5509 74.3126 43.792C74.8642 44.0327 75.3622 44.3813 75.7772 44.8172C77.3459 44.9214 78.8999 45.1847 80.4153 45.6032C80.9831 46.0132 81.6324 46.2963 82.3193 46.4332C83.2469 46.5797 83.9792 46.7261 84.4675 46.8238C84.7936 46.8736 85.1266 46.8561 85.4457 46.7721C85.7648 46.6881 86.0633 46.5395 86.3227 46.3355C87.055 45.8473 87.3968 45.3591 87.4456 44.8709C88.245 44.0092 88.6821 42.8728 88.6661 41.6975C88.8599 41.4525 88.9921 41.1646 89.0515 40.8579C89.111 40.5512 89.096 40.2347 89.0079 39.935C88.8624 39.4442 88.829 38.927 88.9102 38.4216C89.0079 36.6152 88.8126 35.4923 88.3244 35.0529C87.8537 34.3066 87.2397 33.6611 86.518 33.1537C85.7368 32.519 85.2486 31.8795 85.151 31.2497C84.7604 31.7867 84.5163 32.0796 84.4675 32.1285C84.2863 32.228 84.0813 32.2761 83.8748 32.2675C83.6682 32.2589 83.468 32.1939 83.2957 32.0796C82.5433 32.2074 81.7709 32.0319 81.1476 31.5914C80.5786 31.2417 79.8986 31.1197 79.2435 31.2497C79.1056 30.9775 78.8967 30.7476 78.6389 30.5843C78.3811 30.421 78.0839 30.3304 77.7789 30.3221C77.3395 30.2733 76.7048 30.2244 75.7772 30.1268C74.9961 30.7126 73.9708 30.7614 72.7991 30.4197C72.1156 30.1756 71.1391 29.8827 69.8698 29.3945C69.3327 28.7598 69.1375 27.9298 69.1863 26.7093C69.3614 25.7594 69.4431 24.7946 69.4304 23.8288C68.3075 22.4618 68.0634 21.1924 68.6004 20.0207C68.9422 19.0443 69.1863 18.2631 69.3327 17.7261C69.5801 16.9185 69.6138 16.0606 69.4304 15.2362C69.0396 14.2918 68.7452 13.3104 68.5516 12.3069C68.1282 11.8034 67.6537 11.3453 67.1358 10.9398C66.862 10.7623 66.632 10.5252 66.4629 10.2462C66.2938 9.96719 66.19 9.65357 66.1593 9.32877C65.8367 8.95271 65.4409 8.64625 64.9961 8.42802C64.5512 8.2098 64.0666 8.08439 63.5718 8.05942C62.5978 7.98213 61.6421 7.75144 60.7401 7.3759C59.2267 5.86243 57.9085 5.13012 56.7856 5.13012C56.1584 4.60745 55.3545 4.34533 54.5398 4.39779C53.7249 4.41498 52.9096 4.38233 52.0987 4.30011C51.7337 4.39417 51.3526 4.40795 50.9818 4.34052C50.6109 4.27309 50.2591 4.1261 49.9505 3.90958C48.9253 3.32372 48.2418 3.03076 47.9 3.03076C48.0953 3.51898 47.9 4.05602 47.2165 4.73952C46.6307 5.27656 46.6307 5.86242 47.2165 6.44828C47.5011 7.3821 47.6652 8.34846 47.7048 9.32388" stroke="#494E77" stroke-linecap="round" stroke-linejoin="round"></path>
  <path d="M1.32643 4.5395C1.42407 3.75835 1.32643 3.36781 0.984677 3.41664C0.49646 3.22135 0.545281 2.97719 1.17996 2.63544C1.81464 2.29369 2.10757 2.29374 2.10757 2.68431C1.86347 3.02606 1.76582 3.17253 1.81464 3.17253C2.08297 3.025 2.38788 2.95723 2.69343 2.97723C3.46766 2.83016 4.26265 2.83016 5.03687 2.97723C5.37847 2.92058 5.72805 2.93467 6.06397 3.01865C6.39989 3.10263 6.71499 3.25471 6.98974 3.46545C7.26494 3.68233 7.49023 3.95592 7.65029 4.26762C7.81036 4.57932 7.90144 4.92179 7.91735 5.27182C8.35675 5.95533 8.55203 6.05296 8.50321 5.56474C8.45391 5.08337 8.30422 4.61772 8.06382 4.19777C8.07092 3.86491 8.15374 3.53803 8.30601 3.24196C8.45828 2.94588 8.67598 2.6884 8.9426 2.48901C9.19503 2.27493 9.49915 2.13072 9.82465 2.07076C10.1502 2.0108 10.4857 2.03715 10.7978 2.14723C11.1884 2.24487 11.4325 2.63548 11.5302 3.22134C11.5838 3.70132 11.6819 4.17531 11.8231 4.63718C12.0184 4.44189 12.116 3.90483 12.0184 3.02604C11.9695 2.29371 12.2625 1.90313 12.8972 1.85431C13.8248 1.65902 14.5083 1.56141 14.9477 1.46377C15.6475 1.32023 16.3221 1.07343 16.9494 0.731445C17.3399 0.780267 17.6817 1.12197 18.0234 1.65901C18.2278 2.09852 18.5708 2.45879 18.9999 2.68431C19.5857 2.92842 19.7322 3.22131 19.2928 3.56307C19.0975 3.70953 18.7069 3.95364 18.2187 4.29539C17.8882 5.12949 17.4795 5.93048 16.9982 6.68766C17.1778 6.95693 17.2933 7.26385 17.3355 7.58477C17.3778 7.9057 17.3459 8.23206 17.2421 8.53868C17.1383 8.84529 16.9655 9.12397 16.737 9.35325C16.5085 9.58252 16.2304 9.75627 15.9241 9.86107C15.6501 10.1954 15.4804 10.6028 15.4359 11.0328C15.2894 11.7163 15.143 12.1069 14.8988 12.2533C14.9092 12.5033 14.8617 12.7523 14.7601 12.981C14.6585 13.2096 14.5055 13.4117 14.313 13.5715C13.9224 14.0597 13.6783 14.4015 13.7271 14.6456C13.3366 14.6944 12.6042 14.7432 11.5302 14.8409C10.6025 14.8897 10.0167 14.6944 9.72375 14.255C9.67493 13.9133 9.57729 13.7668 9.43082 13.8644C9.19304 14.044 8.89799 14.1308 8.60085 14.1085C8.60085 13.6691 8.2591 13.2786 7.62442 12.9857C7.36256 12.8888 7.12341 12.7392 6.92184 12.546C6.72026 12.3528 6.56057 12.1203 6.4527 11.8627C6.19915 11.2115 5.75722 10.6506 5.18334 10.2517C4.35337 9.71463 3.71869 9.32406 3.32811 9.03113C2.47917 8.31524 1.89472 7.33539 1.66818 6.24826C1.32643 6.05297 1.17996 5.46711 1.32643 4.5395" stroke="#494E77" stroke-linecap="round" stroke-linejoin="round"></path>
  <path d="M47.7085 9.32376C47.7085 9.17729 47.6597 8.98202 47.6597 8.78673C47.4698 7.67615 47.1418 6.59363 46.6832 5.56445C46.4879 5.6621 46.0974 5.90623 45.6092 6.19916C45.1209 6.49209 44.7792 6.39447 44.5351 6.10154C44.3398 6.34565 43.9004 6.44324 43.2657 6.29678C42.631 6.15031 42.2405 6.248 42.0452 6.58976C41.4925 6.48097 40.9213 6.51454 40.3852 6.68738C39.9139 6.77371 39.4846 7.01414 39.1647 7.37089C39.7017 7.56618 39.7506 7.90792 39.36 8.39613C38.9694 8.88435 39.1159 9.07961 39.7506 9.22608C41.0609 10.1708 42.4684 10.9727 43.9492 11.6184C44.1445 11.6184 44.5351 11.9113 45.1209 12.4484V12.4972" stroke="#494E77" stroke-linecap="round" stroke-linejoin="round"></path>
  <path d="M47.7109 9.76363V9.32422" stroke="#494E77" stroke-linecap="round" stroke-linejoin="round"></path>
  <path d="M45.3125 12.6436L45.3613 12.6925C45.8495 13.1807 46.2889 13.083 46.4842 12.4972C47.1784 11.7434 47.6071 10.7833 47.7048 9.76318" stroke="#494E77" stroke-linecap="round" stroke-linejoin="round"></path>
  <path d="M45.121 12.4976C45.121 12.4487 45.0722 12.4487 45.0234 12.3999C44.5713 12.1793 44.1313 11.9348 43.7052 11.6676L42.4358 11.0817C41.9376 10.8525 41.4634 10.5745 41.02 10.2518C40.4341 9.81239 39.9947 9.51945 39.7018 9.32416C39.3511 9.1808 39.0349 8.96442 38.7742 8.68945C38.5417 8.83011 38.2804 8.91636 38.0098 8.94173C37.7393 8.96709 37.4665 8.93094 37.2119 8.83594C36.6723 8.90962 36.1823 9.18961 35.8449 9.61708C35.7473 9.76354 35.5032 9.81234 35.0638 9.7147C34.8685 9.66587 34.7708 9.81235 34.722 10.1541C34.6732 10.4959 34.5755 10.6423 34.3314 10.6423C34.1362 10.7888 34.185 10.9841 34.4291 11.277C34.6732 11.57 34.722 11.7164 34.5755 11.8629C34.3803 11.7164 34.2338 11.7164 34.2338 11.9605C34.2208 11.999 34.2156 12.0397 34.2184 12.0802C34.2212 12.1206 34.2319 12.1602 34.2501 12.1965C34.2683 12.2328 34.2934 12.2651 34.3241 12.2917C34.3549 12.3182 34.3905 12.3384 34.4291 12.3511C34.4018 12.4312 34.392 12.5163 34.4004 12.6005C34.4088 12.6847 34.4353 12.7662 34.4779 12.8393C34.5372 12.9233 34.5768 13.0196 34.5937 13.1211C34.6106 13.2225 34.6044 13.3265 34.5755 13.4252C34.795 13.8586 34.959 14.3178 35.0638 14.7922C35.0949 15.0087 35.0609 15.2297 34.9661 15.4269C34.8806 15.6444 34.8636 15.8829 34.9173 16.1104C34.8197 16.6474 34.722 16.9403 34.6244 16.9891C34.7347 17.1483 34.802 17.3333 34.8197 17.5262C34.8197 17.7703 34.8685 17.9656 35.0638 18.0144C35.1126 18.112 35.0638 18.3562 34.9173 18.7956C34.8197 19.0397 34.9173 19.1861 35.2591 19.0885C36.3331 19.0885 37.0655 19.0885 37.456 19.0397C37.96 18.952 38.4517 18.8045 38.9207 18.6003C39.4577 18.3562 39.8483 18.1609 40.0924 18.0632C40.4761 17.7438 40.8058 17.3646 41.0688 16.9403C41.191 16.4577 41.4445 16.0183 41.8012 15.671C42.2658 15.3648 42.8072 15.1956 43.3634 15.1828C44.1934 15.0851 44.6816 14.9875 44.8281 14.9875C45.121 14.9875 45.4628 14.7434 45.7557 14.2551C45.8489 14.111 45.9026 13.9449 45.9111 13.7735C45.9197 13.602 45.8829 13.4314 45.8045 13.2787L45.5604 12.937C45.465 12.8519 45.3828 12.7532 45.3163 12.644" stroke="#494E77" stroke-linecap="round" stroke-linejoin="round"></path>
  <path d="M45.1211 12.4976C45.1946 12.5341 45.2607 12.5837 45.3164 12.644" stroke="#494E77" stroke-linecap="round" stroke-linejoin="round"></path>
  <path d="M45.3164 12.644C45.3034 12.644 45.291 12.6388 45.2819 12.6297C45.2727 12.6205 45.2676 12.6081 45.2676 12.5952C45.2187 12.5952 45.1699 12.5464 45.1211 12.4976" stroke="#494E77" stroke-linecap="round" stroke-linejoin="round"></path>
  <circle cx="46.5" cy="6.5" r="4.5" fill="#EC7857"></circle>
</svg>
