<?xml version="1.0" encoding="UTF-8"?>
<svg xmlns="http://www.w3.org/2000/svg" width="33" height="107" viewBox="0 0 33 107" fill="none">
  <path d="M8.88425 13.6037C6.75441 13.6037 5.49229 12.4993 5.25564 10.5272C5.09787 9.42287 5.72894 8.55516 7.14883 7.76633C8.88425 6.81974 9.90973 5.95203 10.1464 5.1632C12.1973 4.84767 12.6706 3.42779 11.5663 0.982422C10.9352 1.77125 9.1209 2.71785 6.36 3.9011C4.0724 4.84769 2.73139 6.1887 2.41586 7.84524C2.01548 8.26067 1.70953 8.75767 1.51893 9.30225C1.32833 9.84682 1.25757 10.4261 1.3115 11.0006C1.36259 11.5442 1.54791 12.0667 1.85081 12.5211C2.15372 12.9754 2.56472 13.3474 3.04692 13.6037C4.46681 16.2857 4.62458 20.4665 3.5991 26.0672C4.0724 27.2504 4.30904 29.4591 4.46681 32.6144C4.78234 35.2176 5.96559 36.8741 7.93766 37.5052C10.2253 42.6326 11.9607 46.419 13.065 49.0221C14.8594 54.4842 15.4514 60.2697 14.8005 65.9819C13.6961 66.7708 12.9073 68.4273 12.5129 71.0304C12.1185 73.3969 11.1719 74.9746 9.83085 75.6845C8.06299 76.0444 6.4426 76.9233 5.17676 78.2088C4.86123 78.6032 3.67798 79.9442 1.70591 82.2318C0.917081 82.8629 1.07485 84.3616 2.10032 86.8859C3.20468 85.2294 4.62458 84.9138 6.36 86.0182C8.09542 87.1225 8.25319 88.5424 6.99106 90.3567C6.57164 91.4439 6.54375 92.6432 6.91218 93.7487C7.30659 94.6953 8.01654 94.5375 9.1209 93.4332C9.19978 93.6698 9.75196 93.9853 10.6197 94.4586C10.9345 94.6476 11.176 94.9376 11.305 95.2814C11.4339 95.6251 11.4426 96.0025 11.3296 96.3518C11.3296 97.4562 11.9607 97.535 13.3017 96.5096L15.8259 93.9854C17.6403 91.8555 20.7956 89.3312 25.3708 86.4126C27.895 84.125 29.4727 82.6262 30.1037 81.9162C30.811 81.0903 31.3207 80.1139 31.5941 79.0614C31.8674 78.009 31.8973 76.9081 31.6814 75.8423C31.6695 74.6583 31.3719 73.4946 30.8137 72.4503C30.1037 70.9515 29.7882 69.9261 29.8671 69.1372C28.9994 69.7683 27.895 69.5316 26.4751 68.2695C25.0552 67.0074 23.872 67.0863 22.8465 68.1906C21.4266 67.7173 19.3757 66.3763 16.5359 64.2465C15.1949 59.3558 15.5893 54.0706 17.9558 48.3121C19.3757 47.3656 19.5334 46.1823 18.508 44.7624C18.3606 44.5477 18.1587 44.376 17.923 44.2651C17.6873 44.1542 17.4264 44.1081 17.167 44.1314C16.6148 44.2891 16.2204 44.7624 15.8259 45.6301C14.4849 47.05 13.2228 46.5767 12.1973 44.4469C11.724 43.1847 10.9352 41.5282 9.98861 39.2406C10.7774 38.7673 12.3551 38.9251 14.8005 39.7139C17.0881 40.345 18.7446 40.1083 19.6912 38.9251C20.1238 39.2232 20.4493 39.6524 20.6197 40.1495C20.7901 40.6465 20.7965 41.1851 20.6378 41.686C20.6028 42.2891 20.3779 42.8656 19.9954 43.3332C19.6128 43.8008 19.0922 44.1354 18.508 44.2891C19.4546 44.8413 20.5589 44.6047 21.9788 43.5792C22.9107 42.6127 23.9126 41.7162 24.9764 40.8971C25.736 39.1925 26.3432 37.4239 26.7907 35.612C27.2803 33.8063 27.9681 32.0602 28.8416 30.4057C29.4727 24.5684 28.0528 21.5709 24.4242 21.2553C20.2953 20.6148 16.5837 18.3765 14.0905 15.0236C13.3017 14.1559 11.5663 13.6826 8.88425 13.6037Z" fill="white"></path>
  <path d="M24.3218 91.6188C24.2901 90.8875 24.0606 90.1784 23.6577 89.5672C23.2549 88.956 22.6938 88.4655 22.0342 88.1479C18.6423 88.5424 15.4869 90.9088 12.6472 95.2474C11.3777 97.7931 9.92785 100.245 8.30859 102.584C9.04389 102.556 9.76678 102.779 10.3595 103.215C10.787 103.751 11.0106 104.422 10.9906 105.108C11.7794 105.818 12.4105 105.581 12.8838 104.477C13.436 103.215 14.1459 102.741 15.0925 103.136C15.638 102.698 16.2507 102.352 16.9068 102.11C17.2224 102.031 17.3801 102.662 17.3801 103.925C17.9109 104.211 18.5275 104.295 19.1156 104.161C19.9833 104.161 20.4566 104.24 20.5354 104.398C20.4566 103.925 21.3243 103.451 22.9808 103.136C24.6373 102.82 25.2684 102.031 24.874 100.848C24.3678 100.615 23.9248 100.264 23.5817 99.8253C23.2386 99.3861 23.0056 98.8714 22.9019 98.3239C22.784 97.2095 22.5996 96.1032 22.3497 95.0108C23.0464 94.7994 23.6371 94.332 24.003 93.7027C24.3689 93.0733 24.4828 92.3288 24.3218 91.6188Z" fill="white"></path>
  <path d="M17.306 85.6241C15.965 85.4664 15.3339 85.8608 15.4128 86.8074C15.5706 87.6751 16.2805 87.754 17.6215 86.9652C18.0948 86.8074 18.3315 86.5707 18.1737 86.1763C18.1574 86.0808 18.1212 85.9898 18.0675 85.9092C18.0139 85.8285 17.9439 85.76 17.8622 85.708C17.7805 85.656 17.6888 85.6216 17.593 85.6072C17.4972 85.5928 17.3994 85.5985 17.306 85.6241Z" fill="white"></path>
  <path d="M24.3218 91.6188C24.4828 92.3288 24.3689 93.0733 24.003 93.7027C23.6371 94.332 23.0464 94.7994 22.3497 95.0108C22.5996 96.1032 22.784 97.2095 22.9019 98.3239C23.0056 98.8714 23.2386 99.3861 23.5817 99.8253C23.9248 100.264 24.3678 100.615 24.874 100.848C25.2684 102.031 24.6373 102.741 22.9808 103.136C21.3243 103.53 20.4566 103.925 20.5354 104.398C20.4566 104.24 19.9833 104.161 19.1156 104.161C18.5275 104.295 17.9109 104.211 17.3801 103.925C17.3801 102.662 17.2224 102.031 16.9068 102.11C16.2507 102.352 15.638 102.698 15.0925 103.136C14.1459 102.741 13.436 103.215 12.8838 104.477C12.4105 105.581 11.7794 105.818 10.9906 105.108C11.0106 104.422 10.787 103.751 10.3595 103.215C9.76678 102.779 9.04389 102.556 8.30859 102.584C9.92785 100.245 11.3777 97.7931 12.6472 95.2474C15.4869 90.9088 18.6423 88.5424 22.0342 88.1479C22.6938 88.4655 23.2549 88.956 23.6577 89.5672C24.0606 90.1784 24.2901 90.8875 24.3218 91.6188" stroke="#494E77" stroke-linecap="round" stroke-linejoin="round"></path>
  <path d="M17.3211 85.6233C17.4146 85.5977 17.5123 85.5919 17.6081 85.6064C17.7039 85.6208 17.7956 85.6551 17.8773 85.7071C17.9591 85.7592 18.029 85.8277 18.0827 85.9083C18.1363 85.989 18.1725 86.08 18.1888 86.1755C18.3466 86.5699 18.11 86.8066 17.6367 86.9643C16.2957 87.7532 15.5857 87.6743 15.4279 86.8066C15.2702 85.9389 15.9801 85.4656 17.3211 85.6233Z" stroke="#494E77" stroke-linecap="round" stroke-linejoin="round"></path>
  <path d="M8.88425 13.6037C11.5663 13.6826 13.3017 14.1559 14.0905 15.0236C16.5837 18.3765 20.2953 20.6148 24.4242 21.2553C28.0528 21.5709 29.4727 24.5684 28.8416 30.4057C27.9681 32.0602 27.2803 33.8063 26.7907 35.612C26.3432 37.4239 25.736 39.1925 24.9764 40.8971C23.9126 41.7162 22.9107 42.6127 21.9788 43.5792C20.5589 44.6047 19.4546 44.8413 18.508 44.2891C19.0922 44.1354 19.6128 43.8008 19.9954 43.3332C20.3779 42.8656 20.6028 42.2891 20.6378 41.686C20.7965 41.1851 20.7901 40.6465 20.6197 40.1495C20.4493 39.6524 20.1238 39.2232 19.6912 38.9251C18.7446 40.1083 17.0881 40.345 14.8005 39.7139C12.3551 38.9251 10.7774 38.7673 9.98861 39.2406C10.9352 41.5282 11.724 43.1847 12.1973 44.4469C13.2228 46.5767 14.4849 47.05 15.8259 45.6301C16.2204 44.7624 16.6148 44.2891 17.167 44.1314C17.4264 44.1081 17.6873 44.1542 17.923 44.2651C18.1587 44.376 18.3606 44.5477 18.508 44.7624C19.5334 46.1823 19.3757 47.3656 17.9558 48.3121C15.5893 54.0706 15.1949 59.3558 16.5359 64.2465C19.3757 66.3763 21.4266 67.7173 22.8465 68.1906C23.872 67.0863 25.1341 67.0863 26.4751 68.2695C27.8161 69.4528 28.9994 69.7683 29.8671 69.1372C29.7882 69.9261 30.1037 70.9515 30.8137 72.4503C31.3719 73.4946 31.6695 74.6583 31.6814 75.8423C31.8973 76.9081 31.8674 78.009 31.5941 79.0615C31.3207 80.1139 30.811 81.0903 30.1037 81.9162C29.4727 82.6262 27.895 84.125 25.3708 86.4126C20.7956 89.3312 17.6403 91.8555 15.8259 93.9854L13.3017 96.5096C11.9607 97.535 11.3296 97.4562 11.3296 96.3518C11.4426 96.0025 11.4339 95.6251 11.305 95.2814C11.176 94.9376 10.9345 94.6476 10.6197 94.4586C9.75196 93.9853 9.19978 93.6698 9.1209 93.4332C8.01654 94.5375 7.30659 94.6953 6.91218 93.7487C6.54375 92.6432 6.57164 91.4439 6.99106 90.3567C8.25319 88.5424 8.01654 87.1225 6.36 86.0182C4.70346 84.9138 3.20468 85.2294 2.10032 86.8859C1.07485 84.3616 0.917081 82.8629 1.70591 82.2318C3.67798 79.9442 4.86123 78.6032 5.17676 78.2088C6.4426 76.9233 8.06299 76.0444 9.83085 75.6845C11.1719 74.9746 12.1185 73.3969 12.5129 71.0304C12.9073 68.4273 13.6961 66.7708 14.8005 65.9819C15.4514 60.2697 14.8594 54.4842 13.065 49.0221C11.9607 46.419 10.2253 42.6326 7.93766 37.5052C5.96559 36.8741 4.78234 35.2176 4.46681 32.6144C4.30904 29.4591 4.0724 27.2504 3.5991 26.0672C4.62458 20.4665 4.46681 16.2857 3.04692 13.6037C2.56472 13.3474 2.15372 12.9754 1.85081 12.5211C1.54791 12.0667 1.36259 11.5442 1.3115 11.0006C1.25757 10.4261 1.32833 9.84682 1.51893 9.30224C1.70953 8.75767 2.01548 8.26067 2.41586 7.84524C2.73139 6.1887 4.0724 4.84769 6.36 3.9011C9.1209 2.71785 10.9352 1.77125 11.5663 0.982422C12.6706 3.42779 12.1973 4.84767 10.1464 5.1632C9.90973 5.95203 8.88425 6.81974 7.14883 7.76633C5.72894 8.55516 5.09787 9.42287 5.25564 10.5272C5.49229 12.4993 6.75441 13.6037 8.88425 13.6037" stroke="#494E77" stroke-linecap="round" stroke-linejoin="round"></path>
  <circle cx="21.5" cy="80.5" r="4.5" fill="#EC7857"></circle>
</svg>
